<?xml version="1.0" encoding="UTF-8"?>
<svg version="1.1" viewBox="0 0 509.9 283.74" xmlns="http://www.w3.org/2000/svg">
 <defs>
  <style>.a{fill:#1e1e1e;}.b{fill:#e30613;}</style>
 </defs>
 <path class="a" transform="translate(-.05 -.02)" d="M28,201a9.28,9.28,0,0,1-.4,2.86,10.5,10.5,0,0,1-1,2.21,8.54,8.54,0,0,1-1.15,1.55l-.92,1a10.91,10.91,0,0,1-1.4,1.15,10.34,10.34,0,0,1-2,1.06,14.88,14.88,0,0,1-2.89.8,22.34,22.34,0,0,1-4,.32c-1.22,0-2.43,0-3.61-.14s-2.39-.14-3.61-.14c-.92,0-1.83,0-2.75.11s-1.83.13-2.75.17q.22-5,.32-10.34t.09-10q0-4.75-.09-9.48t-.37-9.48c.73.08,1.41.13,2.06.17s1.62.08,2.92.11c.31,0,.84,0,1.6-.06s1.57-.07,2.41-.09,1.63-.05,2.38-.09,1.27-.06,1.58-.06a24.73,24.73,0,0,1,4.56.4,10.93,10.93,0,0,1,3.81,1.43,7.44,7.44,0,0,1,2.64,2.81,9.46,9.46,0,0,1,1,4.58,7.2,7.2,0,0,1-.86,3.55A9.24,9.24,0,0,1,23.31,188a11.59,11.59,0,0,1-3.09,1.8,14.59,14.59,0,0,1-3.5.92,25.59,25.59,0,0,1,4.41.8,10.55,10.55,0,0,1,3.61,1.75,8.24,8.24,0,0,1,2.44,3A11.36,11.36,0,0,1,28,201ZM8.84,189.43l1.2.09c.38,0,.76,0,1.15,0A8.06,8.06,0,0,0,17,187.63a7.53,7.53,0,0,0,2-5.7,7,7,0,0,0-1.55-4.73,5.61,5.61,0,0,0-4.53-1.8c-1.34,0-2.66.06-3.95.17,0,.76-.07,1.54-.09,2.32s0,1.56,0,2.32Zm0,14.44c0,.46,0,1.17,0,2.12s.05,1.83.09,2.64c.57.08,1.09.15,1.55.23a9.1,9.1,0,0,0,1.55.11,8.87,8.87,0,0,0,6.25-2q2.18-2,2.18-6.22a10.6,10.6,0,0,0-.69-4.1A6.7,6.7,0,0,0,17.88,194a7.11,7.11,0,0,0-3-1.4,17.78,17.78,0,0,0-3.95-.4,13.72,13.72,0,0,0-2.06.17v11.52Z"/>
 <path class="a" transform="translate(-.05 -.02)" d="M42.65,176.88c-.08,2.18-.12,4.57-.14,7.16s0,5.14,0,7.62q0,3.43.06,5.64c0,1.47.11,2.68.23,3.64a10,10,0,0,0,.52,2.35,7.59,7.59,0,0,0,1,1.78,8.13,8.13,0,0,0,3.5,2.58,13.87,13.87,0,0,0,5.27.92,10.94,10.94,0,0,0,6-1.63,8.48,8.48,0,0,0,3.52-4.27,9,9,0,0,0,.32-1.06,12.78,12.78,0,0,0,.23-1.52c.06-.61.1-1.33.14-2.15s.06-1.82.06-3c0-3.74,0-7.48-.09-11.2s-.2-7.46-.43-11.2l1.26.23a7.06,7.06,0,0,0,1.32.11,9.17,9.17,0,0,0,1.38-.11l1.32-.23-.17,2.75c-.08,1.22-.14,2.82-.2,4.79s-.11,4-.14,6.16-.08,4.24-.11,6.3-.08,3.82-.12,5.27a26.13,26.13,0,0,1-.43,4.41,12.68,12.68,0,0,1-1.12,3.35,10.24,10.24,0,0,1-1.8,2.52,14.85,14.85,0,0,1-2.49,2A13.56,13.56,0,0,1,56.85,212a23.83,23.83,0,0,1-5,.57,29,29,0,0,1-5.27-.49,16.88,16.88,0,0,1-5-1.72,12.16,12.16,0,0,1-4-3.38,11.32,11.32,0,0,1-2.12-5.47,9.11,9.11,0,0,1-.11-1.63v-17c0-.72,0-1.54,0-2.43s0-1.81-.06-2.72-.05-1.82-.09-2.72-.08-1.71-.12-2.44l2,.23a17.6,17.6,0,0,0,3.93,0l1.8-.23Z"/>
 <path class="a" transform="translate(-.05 -.02)" d="M76.86,203.24a16.15,16.15,0,0,0,2,3.47,8.54,8.54,0,0,0,2.15,2,7.06,7.06,0,0,0,2.29.92,12.87,12.87,0,0,0,2.44.23,8.34,8.34,0,0,0,3.09-.54,7,7,0,0,0,2.35-1.49,6.57,6.57,0,0,0,1.52-2.26,7.48,7.48,0,0,0,.54-2.87,6.56,6.56,0,0,0-.57-2.89,7.16,7.16,0,0,0-1.35-1.95,5.86,5.86,0,0,0-1.58-1.17q-.81-.4-1.2-.57c-.8-.34-1.79-.74-3-1.2s-2.15-.86-2.95-1.2a18.49,18.49,0,0,1-3.47-1.95A9.16,9.16,0,0,1,77,189.49a8,8,0,0,1-1.17-2.69,14.07,14.07,0,0,1-.34-3.24,13.19,13.19,0,0,1,.63-3.92,9.72,9.72,0,0,1,2.15-3.7,11.52,11.52,0,0,1,4.1-2.75,16.84,16.84,0,0,1,6.47-1.09,17.23,17.23,0,0,1,5.27.69,39.09,39.09,0,0,1,4.24,1.66c-.31.69-.54,1.26-.72,1.72s-.32.87-.43,1.23-.22.74-.32,1.12-.2.84-.31,1.38h-.8A5.9,5.9,0,0,0,93,176.18a9.06,9.06,0,0,0-4.81-1.26,6.57,6.57,0,0,0-5.07,1.83,6.18,6.18,0,0,0-1.69,4.35,5.73,5.73,0,0,0,.54,2.61,5.59,5.59,0,0,0,1.55,1.86A10.45,10.45,0,0,0,86,187c1,.42,2.12.88,3.38,1.38,1.11.42,2,.79,2.84,1.12s1.48.64,2.09.95a10.8,10.8,0,0,1,1.58,1,9.23,9.23,0,0,1,1.29,1.17,9,9,0,0,1,1.46,2,11.21,11.21,0,0,1,.83,2.09,14.4,14.4,0,0,1,.4,1.95,12,12,0,0,1,.12,1.49,13.11,13.11,0,0,1-.8,4.41,11.19,11.19,0,0,1-2.55,4,13.24,13.24,0,0,1-4.5,2.95,17.49,17.49,0,0,1-6.7,1.15,19.22,19.22,0,0,1-3.47-.31,23.44,23.44,0,0,1-3-.77c-.9-.31-1.71-.62-2.43-.95s-1.34-.62-1.83-.89q.35-1.09.57-1.86a11.64,11.64,0,0,0,.34-1.46c.08-.46.14-.93.2-1.4s.12-1.06.2-1.75h.78Z"/>
 <path class="a" transform="translate(-.05 -.02)" d="M108.43,185.77c0-1.83,0-3.8-.06-5.9s-.21-4.54-.52-7.33c.53.08,1.24.15,2.12.23s1.53.11,2,.11a19.61,19.61,0,0,0,2-.11l2.06-.23c-.15,1.07-.28,2.44-.37,4.1s-.16,3.43-.2,5.3-.06,3.73-.06,5.59v5q0,6.42.12,11.14t.46,8.22c-.65,0-1.32-.1-2-.2a13.93,13.93,0,0,0-2-.14,16.71,16.71,0,0,0-2.06.14c-.72.09-1.41.16-2.06.2q.47-5.16.54-11.92T108.43,185.77Z"/>
 <path class="a" transform="translate(-.05 -.02)" d="M126.08,188.63c0-2.71,0-5.41,0-8.08s0-5.35-.09-8l.69.09.69,0q.34,0,.66,0l.66-.09,4.07,4.41c1.34,1.45,2.71,2.9,4.13,4.35s2.88,3,4.41,4.5,3.15,3.16,4.87,4.84l6.76,6.65a16.94,16.94,0,0,0,1.35,1.26c.36.31.87.71,1.52,1.2V187q0-3.66-.2-7.31c-.13-2.43-.3-4.82-.49-7.19l1.09.23a6.88,6.88,0,0,0,1.38.11,7.27,7.27,0,0,0,1.35-.11c.37-.07.72-.15,1.06-.23-.12,1.72-.22,3.3-.32,4.76s-.16,2.91-.2,4.38-.07,3-.09,4.64,0,3.49,0,5.59v3.27c0,1.34,0,2.72,0,4.15s0,2.8,0,4.1v4.24c0,.5,0,1,0,1.58s0,1.09,0,1.6v1.29l-.57-.09a5.44,5.44,0,0,0-.57,0l-.6,0a5.4,5.4,0,0,0-.6.09c-1.22-1.3-2.61-2.76-4.15-4.38s-3.16-3.29-4.84-5-3.4-3.46-5.16-5.21-3.46-3.44-5.1-5-3.17-3.08-4.58-4.44-2.62-2.49-3.61-3.41v5.24c0,1.54,0,3,0,4.41s0,2.76.06,4.1.05,2.77.09,4.3c0,.84,0,1.54,0,2.09s0,1.14.09,1.75.09,1.33.14,2.15.14,1.88.26,3.18c-.31,0-.71-.1-1.2-.2a7,7,0,0,0-1.38-.14,6.61,6.61,0,0,0-1.2.11l-1.09.23.46-8c0-.38.07-.91.09-1.58s0-1.38.06-2.12,0-1.45,0-2.12v-9.44Z"/>
 <path class="a" transform="translate(-.05 -.02)" d="M176.79,189.55h2.72c1.09,0,2.22,0,3.41-.06l3.44-.14c1.11-.06,2-.12,2.81-.2-.08.31-.14.62-.2.95a6.27,6.27,0,0,0-.09,1.12,5.07,5.07,0,0,0,.29,1.95c-.76-.08-1.51-.13-2.24-.17l-2.18-.11-4-.09c-1.32,0-2.65,0-4,0V208.3l2.09,0,3.5-.09,4.12-.12c1.43,0,2.76-.09,4-.17a4.78,4.78,0,0,0-.29,1.89,6,6,0,0,0,.29,2.06q-5.16-.34-10.54-.34t-10.77.34c.08-1.22.13-2.42.17-3.58s.08-2.36.11-3.58c0-.84.07-1.86.09-3.07s0-2.42.06-3.67,0-2.42.06-3.55,0-2,0-2.66,0-1.68,0-3.21,0-3.24-.09-5.13-.09-3.81-.14-5.76-.14-3.65-.26-5.1c.69,0,1.48.08,2.36.11l2.74.12,2.8.09,2.53,0c1.34,0,2.91,0,4.73-.11l5.82-.23c-.08.34-.14.65-.2.92a4.22,4.22,0,0,0-.09.92,5.92,5.92,0,0,0,.29,2.12l-5.39-.29-1.4-.09c-.4,0-.87,0-1.4,0H176.8v13.46Z"/>
 <path class="a" transform="translate(-.05 -.02)" d="M197.81,203.24a16.15,16.15,0,0,0,2,3.47,8.54,8.54,0,0,0,2.15,2,7.06,7.06,0,0,0,2.29.92,12.87,12.87,0,0,0,2.44.23,8.34,8.34,0,0,0,3.09-.54,7,7,0,0,0,2.35-1.49,6.57,6.57,0,0,0,1.52-2.26,7.48,7.48,0,0,0,.54-2.87,6.56,6.56,0,0,0-.57-2.89,7.16,7.16,0,0,0-1.35-1.95,5.86,5.86,0,0,0-1.58-1.17q-.81-.4-1.2-.57c-.8-.34-1.79-.74-2.95-1.2s-2.15-.86-3-1.2a18.49,18.49,0,0,1-3.47-1.95,9.16,9.16,0,0,1-2.23-2.26,8,8,0,0,1-1.17-2.69,14.07,14.07,0,0,1-.34-3.24,13.19,13.19,0,0,1,.63-3.92,9.72,9.72,0,0,1,2.15-3.7,11.52,11.52,0,0,1,4.1-2.75,16.84,16.84,0,0,1,6.47-1.09,17.23,17.23,0,0,1,5.27.69,39.09,39.09,0,0,1,4.24,1.66c-.31.69-.54,1.26-.72,1.72s-.32.87-.43,1.23-.22.74-.32,1.12-.2.84-.31,1.38h-.8a5.9,5.9,0,0,0-2.69-3.72,9.06,9.06,0,0,0-4.81-1.26,6.57,6.57,0,0,0-5.07,1.83,6.18,6.18,0,0,0-1.69,4.35,5.73,5.73,0,0,0,.54,2.61,5.59,5.59,0,0,0,1.55,1.86A10.45,10.45,0,0,0,207,187c1,.42,2.12.88,3.38,1.38,1.11.42,2,.79,2.84,1.12s1.48.64,2.09.95a10.8,10.8,0,0,1,1.58,1,9.23,9.23,0,0,1,1.29,1.17,9,9,0,0,1,1.46,2,11.21,11.21,0,0,1,.83,2.09,14.4,14.4,0,0,1,.4,1.95,12,12,0,0,1,.12,1.49,13.11,13.11,0,0,1-.8,4.41,11.19,11.19,0,0,1-2.55,4,13.24,13.24,0,0,1-4.5,2.95,17.49,17.49,0,0,1-6.7,1.15,19.22,19.22,0,0,1-3.47-.31,23.44,23.44,0,0,1-3-.77c-.9-.31-1.71-.62-2.43-.95s-1.34-.62-1.83-.89q.34-1.09.57-1.86a11.64,11.64,0,0,0,.34-1.46c.08-.46.14-.93.2-1.4s.12-1.06.2-1.75h.78Z"/>
 <path class="a" transform="translate(-.05 -.02)" d="M228.58,203.24a16.15,16.15,0,0,0,2,3.47,8.54,8.54,0,0,0,2.15,2,7.06,7.06,0,0,0,2.29.92,12.87,12.87,0,0,0,2.44.23,8.34,8.34,0,0,0,3.09-.54,7,7,0,0,0,2.35-1.49,6.57,6.57,0,0,0,1.52-2.26,7.48,7.48,0,0,0,.54-2.87,6.56,6.56,0,0,0-.57-2.89,7.16,7.16,0,0,0-1.35-1.95,5.86,5.86,0,0,0-1.58-1.17q-.81-.4-1.2-.57c-.8-.34-1.79-.74-3-1.2s-2.15-.86-2.95-1.2a18.49,18.49,0,0,1-3.47-1.95,9.16,9.16,0,0,1-2.23-2.26,8,8,0,0,1-1.17-2.69,14.07,14.07,0,0,1-.34-3.24,13.19,13.19,0,0,1,.63-3.92,9.72,9.72,0,0,1,2.15-3.7,11.52,11.52,0,0,1,4.1-2.75,16.84,16.84,0,0,1,6.47-1.09,17.23,17.23,0,0,1,5.27.69,39.09,39.09,0,0,1,4.24,1.66c-.31.69-.54,1.26-.72,1.72s-.32.87-.43,1.23-.22.74-.32,1.12-.2.84-.31,1.38h-.8a5.9,5.9,0,0,0-2.69-3.72,9.06,9.06,0,0,0-4.81-1.26,6.57,6.57,0,0,0-5.07,1.83,6.18,6.18,0,0,0-1.69,4.35,5.73,5.73,0,0,0,.54,2.61,5.59,5.59,0,0,0,1.55,1.86,10.45,10.45,0,0,0,2.49,1.43c1,.42,2.12.88,3.38,1.38s2.05.79,2.84,1.12,1.48.64,2.09.95a10.8,10.8,0,0,1,1.58,1,9.23,9.23,0,0,1,1.29,1.17,9,9,0,0,1,1.46,2,11.21,11.21,0,0,1,.83,2.09,14.4,14.4,0,0,1,.4,1.95,12,12,0,0,1,.12,1.49,13.11,13.11,0,0,1-.8,4.41,11.19,11.19,0,0,1-2.55,4,13.24,13.24,0,0,1-4.5,2.95,17.49,17.49,0,0,1-6.7,1.15,19.22,19.22,0,0,1-3.47-.31,23.44,23.44,0,0,1-3-.77c-.9-.31-1.71-.62-2.43-.95s-1.34-.62-1.83-.89q.34-1.09.57-1.86a11.64,11.64,0,0,0,.34-1.46c.08-.46.14-.93.2-1.4s.12-1.06.2-1.75h.78Z"/>
 <path class="a" transform="translate(-.05 -.02)" d="M274.25,203.24a16.15,16.15,0,0,0,2,3.47,8.54,8.54,0,0,0,2.15,2,7.06,7.06,0,0,0,2.29.92,12.87,12.87,0,0,0,2.44.23,8.34,8.34,0,0,0,3.09-.54,7,7,0,0,0,2.35-1.49,6.57,6.57,0,0,0,1.52-2.26,7.48,7.48,0,0,0,.54-2.87,6.56,6.56,0,0,0-.57-2.89,7.16,7.16,0,0,0-1.35-1.95,5.86,5.86,0,0,0-1.58-1.17q-.81-.4-1.2-.57c-.8-.34-1.79-.74-2.95-1.2s-2.15-.86-2.95-1.2a18.49,18.49,0,0,1-3.47-1.95,9.16,9.16,0,0,1-2.23-2.26,8,8,0,0,1-1.17-2.69,14.07,14.07,0,0,1-.34-3.24,13.19,13.19,0,0,1,.63-3.92,9.72,9.72,0,0,1,2.15-3.7,11.52,11.52,0,0,1,4.1-2.75,16.84,16.84,0,0,1,6.47-1.09,17.23,17.23,0,0,1,5.27.69,39.09,39.09,0,0,1,4.24,1.66c-.31.69-.54,1.26-.72,1.72s-.32.87-.43,1.23-.22.74-.32,1.12-.2.84-.31,1.38h-.8a5.9,5.9,0,0,0-2.69-3.72,9.06,9.06,0,0,0-4.81-1.26,6.57,6.57,0,0,0-5.07,1.83,6.18,6.18,0,0,0-1.69,4.35,5.73,5.73,0,0,0,.54,2.61,5.59,5.59,0,0,0,1.55,1.86,10.45,10.45,0,0,0,2.49,1.43c1,.42,2.12.88,3.38,1.38s2.05.79,2.84,1.12,1.48.64,2.09.95a10.8,10.8,0,0,1,1.58,1,9.23,9.23,0,0,1,1.29,1.17,9,9,0,0,1,1.46,2,11.21,11.21,0,0,1,.83,2.09,14.4,14.4,0,0,1,.4,1.95,12,12,0,0,1,.12,1.49,13.11,13.11,0,0,1-.8,4.41,11.19,11.19,0,0,1-2.55,4,13.24,13.24,0,0,1-4.5,2.95,17.49,17.49,0,0,1-6.7,1.15,19.22,19.22,0,0,1-3.47-.31,23.44,23.44,0,0,1-3-.77c-.9-.31-1.71-.62-2.43-.95s-1.34-.62-1.83-.89q.34-1.09.57-1.86a11.64,11.64,0,0,0,.34-1.46c.08-.46.14-.93.2-1.4s.12-1.06.2-1.75h.78Z"/>
 <path class="a" transform="translate(-.05 -.02)" d="M337.22,180.55h-.57c-.19-.34-.48-.82-.86-1.43a6.51,6.51,0,0,0-1.78-1.78,12,12,0,0,0-3.21-1.52,16.62,16.62,0,0,0-5.1-.66q-7.21,0-10.94,4.47T311,192.29c0,.5,0,1.18.06,2.06a20.63,20.63,0,0,0,.37,3,19.18,19.18,0,0,0,1,3.44,15,15,0,0,0,2,3.52,12.75,12.75,0,0,0,1.75,2,13.31,13.31,0,0,0,2.26,1.66,11.14,11.14,0,0,0,2.84,1.17,13.21,13.21,0,0,0,3.52.43,16.54,16.54,0,0,0,4.67-.6,15.46,15.46,0,0,0,3.61-1.55,15.9,15.9,0,0,0,2.78-2.09,30.67,30.67,0,0,0,2.18-2.29l.63.4-.63,5.67a29.43,29.43,0,0,1-14.5,3.61,24,24,0,0,1-7.91-1.29,18.78,18.78,0,0,1-6.5-3.78,17.81,17.81,0,0,1-4.41-6.22,21.05,21.05,0,0,1-1.63-8.54,23.83,23.83,0,0,1,1.35-8.08,17.8,17.8,0,0,1,4.1-6.59,19.37,19.37,0,0,1,7-4.44,27.43,27.43,0,0,1,9.94-1.63,33.48,33.48,0,0,1,6.76.66,31.41,31.41,0,0,1,6.65,2.21Z"/>
 <path class="a" transform="translate(-.05 -.02)" d="M371.83,192.53c-1.56-.08-3.1-.13-4.63-.17s-3.07-.06-4.63-.06-3.27,0-4.88.06-3.25.1-4.88.17v5.73c0,1.83,0,3.41,0,4.73s.06,2.48.12,3.5.11,1.93.17,2.75.12,1.69.2,2.61c-.42,0-1-.1-1.69-.2a16.23,16.23,0,0,0-2.26-.14,19.27,19.27,0,0,0-2,.11l-2,.23q.35-6.58.43-13t.09-13q0-3.37-.14-6.65c-.1-2.18-.24-4.37-.43-6.59.57.08,1.29.15,2.15.23s1.52.11,2,.11l1,0,1.15-.09,1.06-.12.77-.11c-.08.8-.14,1.6-.2,2.38s-.12,1.77-.17,2.95-.1,2.65-.12,4.38,0,4,0,6.62c1.45.08,2.88.13,4.31.17s2.87.06,4.31.06c1.75,0,3.48,0,5.2-.06s3.45-.09,5.2-.17v-2c0-.94,0-1.93,0-3s0-2-.06-3,0-1.58,0-1.92v-1.17c0-.32,0-.71-.06-1.15s-.08-1-.11-1.6-.08-1.48-.12-2.55c.54.08,1.21.15,2,.23s1.54.11,2.2.11,1.21,0,2-.11,1.48-.15,2-.23q-.29,2.23-.43,5.7c-.1,2.31-.17,4.71-.23,7.19s-.1,4.88-.12,7.19,0,4.21,0,5.7q0,3.44.06,6.93a50.17,50.17,0,0,0,.52,6.59l-2.1-.23a18.89,18.89,0,0,0-2.11-.11,19.47,19.47,0,0,0-2,.11l-2,.23c0-.27,0-.84.09-1.72s.11-1.85.17-2.92.1-2.11.14-3.12.06-1.79.06-2.32Z"/>
 <path class="a" transform="translate(-.05 -.02)" d="m408.68 172.07a27.48 27.48 0 0 1 7.82 1.12 19.37 19.37 0 0 1 6.79 3.52 17.58 17.58 0 0 1 4.78 6.1 20 20 0 0 1 1.8 8.85 23.22 23.22 0 0 1-1.55 8.68 18.68 18.68 0 0 1-4.35 6.59 19.31 19.31 0 0 1-6.76 4.21 24.57 24.57 0 0 1-8.71 1.49 26.49 26.49 0 0 1-8.37-1.29 19.83 19.83 0 0 1-6.79-3.78 17.55 17.55 0 0 1-4.56-6.16 20 20 0 0 1-1.66-8.37 23.06 23.06 0 0 1 1.75-9.4 18.39 18.39 0 0 1 4.7-6.53 18.94 18.94 0 0 1 6.85-3.81 27.6 27.6 0 0 1 8.26-1.22zm-13.68 20.28a28.06 28.06 0 0 0 0.72 6.33 16.61 16.61 0 0 0 2.35 5.56 13 13 0 0 0 4.18 3.95 12.08 12.08 0 0 0 6.27 1.52 11.81 11.81 0 0 0 6.22-1.55 13 13 0 0 0 4.18-4 17.62 17.62 0 0 0 2.38-5.59 26.14 26.14 0 0 0 0.75-6.19 29.86 29.86 0 0 0-0.72-6.65 16.66 16.66 0 0 0-2.29-5.53 11.53 11.53 0 0 0-4.15-3.78 13.12 13.12 0 0 0-6.36-1.4 11.61 11.61 0 0 0-6.27 1.6 13.58 13.58 0 0 0-4.18 4.12 17.47 17.47 0 0 0-2.35 5.62 26.26 26.26 0 0 0-0.73 5.99z"/>
 <path class="a" transform="translate(-.05 -.02)" d="m457.49 172.07a27.48 27.48 0 0 1 7.82 1.12 19.37 19.37 0 0 1 6.79 3.52 17.58 17.58 0 0 1 4.78 6.1 20 20 0 0 1 1.8 8.85 23.22 23.22 0 0 1-1.55 8.68 18.68 18.68 0 0 1-4.35 6.59 19.31 19.31 0 0 1-6.76 4.21 24.57 24.57 0 0 1-8.71 1.49 26.49 26.49 0 0 1-8.37-1.29 19.83 19.83 0 0 1-6.79-3.78 17.55 17.55 0 0 1-4.56-6.16 20 20 0 0 1-1.66-8.37 23.06 23.06 0 0 1 1.75-9.4 18.39 18.39 0 0 1 4.7-6.53 18.94 18.94 0 0 1 6.85-3.81 27.7 27.7 0 0 1 8.26-1.22zm-13.69 20.28a28.06 28.06 0 0 0 0.72 6.33 16.61 16.61 0 0 0 2.35 5.56 13 13 0 0 0 4.18 3.95 12.08 12.08 0 0 0 6.27 1.52 11.81 11.81 0 0 0 6.22-1.55 13 13 0 0 0 4.18-4 17.62 17.62 0 0 0 2.38-5.59 26.14 26.14 0 0 0 0.75-6.19 29.86 29.86 0 0 0-0.72-6.65 16.66 16.66 0 0 0-2.29-5.53 11.53 11.53 0 0 0-4.15-3.78 13.12 13.12 0 0 0-6.36-1.4 11.61 11.61 0 0 0-6.27 1.6 13.58 13.58 0 0 0-4.18 4.12 17.47 17.47 0 0 0-2.35 5.62 26.26 26.26 0 0 0-0.73 5.99z"/>
 <path class="a" transform="translate(-.05 -.02)" d="M487.06,188.17v-1.6c0-.46,0-1,0-1.52s0-1.22-.06-2-.05-1.81-.09-3.07c0-.31,0-.81,0-1.52s-.05-1.45-.09-2.24-.07-1.53-.09-2.23,0-1.19,0-1.46a14.81,14.81,0,0,0,2,.29q.88.06,2,.06c.72,0,1.39,0,2-.09s1.28-.14,2-.26q-.17,3.27-.26,6.29c-.06,2-.11,4-.17,6s-.1,4-.11,6.05,0,4.15,0,6.37c0,2,0,3.95.06,5.77s.08,3.53.11,5.14h3.32c1.11,0,2.34,0,3.7-.06s2.7-.11,4-.19,2.42-.19,3.27-.32c-.08.31-.14.6-.2.89a7.64,7.64,0,0,0-.09,1.4,6.58,6.58,0,0,0,.06,1,9,9,0,0,0,.23.95c-.73,0-1.56-.08-2.49-.11l-2.89-.12-3-.09-2.61,0c-1.83,0-3.59,0-5.27.09s-3.57.14-5.67.26q0-.22,0-1.38c0-.76.05-1.69.09-2.78s.07-2.25.09-3.5.05-2.42.09-3.52.07-2.07.09-2.89,0-1.35,0-1.58v-8Z"/>
 <path class="a" transform="translate(-.05 -.02)" d="M21.54,280.72a9.55,9.55,0,0,1-1.71.62c-.67.18-1.41.35-2.24.49a14.41,14.41,0,0,1-2.58.22,16.42,16.42,0,0,1-5.31-.82,11.23,11.23,0,0,1-4.2-2.49,11.64,11.64,0,0,1-2.76-4.09,15.68,15.68,0,0,1,0-11,11.51,11.51,0,0,1,2.8-4.09A12.15,12.15,0,0,1,9.85,257a16.79,16.79,0,0,1,5.53-.87,18.07,18.07,0,0,1,4.38.49,20.88,20.88,0,0,1,3.51,1.18,4.9,4.9,0,0,0-.47,1.38c-.12.58-.22,1.07-.29,1.46l-.22.07a7.51,7.51,0,0,0-1-1,12,12,0,0,0-1.53-1.05,10.35,10.35,0,0,0-2-.86,8,8,0,0,0-2.4-.35,11.21,11.21,0,0,0-4,.69,8.41,8.41,0,0,0-3.2,2.13,9.93,9.93,0,0,0-2.13,3.64,18.31,18.31,0,0,0,0,10.44A9.93,9.93,0,0,0,8.2,278a8.49,8.49,0,0,0,3.2,2.13,11.21,11.21,0,0,0,4,.69,8.48,8.48,0,0,0,2.42-.33,13.53,13.53,0,0,0,2-.78,11.48,11.48,0,0,0,1.67-1c.5-.35.92-.66,1.25-.93l.15.15-.33,2.15A5.31,5.31,0,0,1,21.54,280.72Z"/>
 <path class="a" transform="translate(-.05 -.02)" d="M27.51,261.29c-.06-1.54-.13-3.11-.2-4.71l.91.13a6.35,6.35,0,0,0,.87.05,8.46,8.46,0,0,0,.87-.05c.29,0,.59-.08.91-.13-.07,1.6-.14,3.17-.2,4.71s-.09,3.11-.09,4.71v6.26c0,1.6,0,3.18.09,4.73s.13,3.08.2,4.58c-.56-.05-1.15-.07-1.78-.07s-1.22,0-1.78.07c.07-1.5.14-3,.2-4.58s.09-3.13.09-4.73V266Q27.6,263.6,27.51,261.29Z"/>
 <path class="a" transform="translate(-.05 -.02)" d="M42.23,258.47l-2,0c-.69,0-1.38,0-2.07.07l-2,.13c-.64.05-1.22.11-1.73.18a4.44,4.44,0,0,0,.18-1.16,5.09,5.09,0,0,0-.18-1.13l4.69.13c1.52,0,3.09.05,4.69.05s3.17,0,4.69-.05,3.09-.08,4.69-.13a5.14,5.14,0,0,0-.18,1.16,4.36,4.36,0,0,0,.18,1.13c-.51-.07-1.09-.13-1.73-.18l-2-.13c-.69,0-1.38-.06-2.07-.07l-2,0q-.1,3.75-.11,7.53v6.26c0,1.6,0,3.18.09,4.73s.13,3.08.2,4.58c-.56-.05-1.15-.07-1.78-.07s-1.22,0-1.78.07c.07-1.5.14-3,.2-4.58s.09-3.13.09-4.73V266Q42.34,262.22,42.23,258.47Z"/>
 <path class="a" transform="translate(-.05 -.02)" d="m62.08 269.55c-0.47-0.79-1-1.66-1.56-2.62l-3.6-6c-0.57-1-1.09-1.82-1.55-2.58l-1-1.73 1 0.13a8.27 8.27 0 0 0 1 0.05c0.34 0 0.67 0 1-0.05l1-0.13q1.63 3.17 3.33 6.22t3.58 6.37c0.56-0.87 1.14-1.83 1.75-2.88s1.21-2.11 1.82-3.2 1.19-2.19 1.75-3.29 1.08-2.18 1.56-3.22a5.69 5.69 0 0 0 2.84 0c-1.16 1.77-2.21 3.37-3.13 4.8s-1.73 2.73-2.44 3.89-1.32 2.21-1.86 3.15-1 1.78-1.38 2.53v2.87s0 2 0 3 0.05 1.89 0.09 2.73 0.08 1.51 0.13 2c-0.56-0.05-1.15-0.07-1.78-0.07s-1.23 0-1.78 0.07a43.9 43.9 0 0 0 0.25-4.58v-5.64z"/>
 <path class="a" transform="translate(-.05 -.02)" d="M107.47,260.44a38.16,38.16,0,0,0-.18-3.86l.76.13a4.48,4.48,0,0,0,.73.05,3.92,3.92,0,0,0,1.09-.18c-.07.85-.15,1.86-.22,3s-.13,2.44-.18,3.78-.1,2.73-.15,4.15-.08,2.8-.11,4.13a12.94,12.94,0,0,1-.75,4.37,9,9,0,0,1-2,3.27,8.38,8.38,0,0,1-3.22,2,12.87,12.87,0,0,1-4.38.69q-5.46,0-7.93-2.47t-2.47-7.82c0-1.14,0-2.15.09-3s.09-1.79.09-2.71c0-2,0-3.84-.07-5.42s-.1-2.91-.15-4c.29.05.61.09.95.13a8.08,8.08,0,0,0,1,0,6.53,6.53,0,0,0,.78,0c.25,0,.52-.08.78-.13,0,.53-.1,1.23-.15,2.09s-.1,1.84-.15,2.93-.08,2.27-.11,3.53,0,2.57,0,3.93c0,.83,0,1.68,0,2.57a19.45,19.45,0,0,0,.25,2.58,10.37,10.37,0,0,0,.71,2.4,5.94,5.94,0,0,0,1.4,2A6.53,6.53,0,0,0,96.1,280a10.23,10.23,0,0,0,3.42.49,8.59,8.59,0,0,0,3.37-.58,6.45,6.45,0,0,0,2.24-1.53,6.91,6.91,0,0,0,1.36-2.18,12.46,12.46,0,0,0,.71-2.58,18.82,18.82,0,0,0,.25-2.69c0-.9,0-1.72,0-2.47C107.51,265,107.49,262.31,107.47,260.44Z"/>
 <path class="a" transform="translate(-.05 -.02)" d="M128,272.14q-4.72-5.07-9.46-10.1c0,.68,0,1.59-.07,2.73s0,2.69,0,4.66c0,.51,0,1.14,0,1.89s0,1.54,0,2.37,0,1.66,0,2.51,0,1.64.07,2.37.05,1.36.07,1.91,0,.92.07,1.11a10,10,0,0,0-1.27-.07,11.37,11.37,0,0,0-1.35.07c0-.24.1-.69.16-1.35s.12-1.44.16-2.35.1-1.9.16-3,.11-2.13.15-3.2.07-2.11.09-3.13,0-1.93,0-2.73q0-3.5,0-6t-.09-3.75h.58l4.75,5.15q2.54,2.75,5,5.42l4.73,5.06c1.49,1.59,2.8,2.94,3.91,4.06v-4.95q0-3.83,0-7.44c0-2.41-.12-4.69-.24-6.82a5.28,5.28,0,0,0,1.24.18,5.06,5.06,0,0,0,1.16-.18c-.05.53-.1,1.33-.16,2.4s-.12,2.21-.18,3.42-.12,2.4-.16,3.57-.07,2.1-.07,2.8V271c0,.82,0,1.69,0,2.58s0,1.8,0,2.71,0,1.76,0,2.55,0,1.47,0,2.06v1.2h-.51Q132.73,277.21,128,272.14Z"/>
 <path class="a" transform="translate(-.05 -.02)" d="M144.2,261.29c-.06-1.54-.13-3.11-.2-4.71l.91.13a6.35,6.35,0,0,0,.87.05,8.46,8.46,0,0,0,.87-.05c.29,0,.59-.08.91-.13-.07,1.6-.14,3.17-.2,4.71s-.09,3.11-.09,4.71v6.26c0,1.6,0,3.18.09,4.73s.13,3.08.2,4.58c-.56-.05-1.15-.07-1.78-.07s-1.22,0-1.78.07c.07-1.5.14-3,.2-4.58s.09-3.13.09-4.73V266Q144.29,263.6,144.2,261.29Z"/>
 <path class="a" transform="translate(-.05 -.02)" d="M159.14,276.41c-.8-2-1.66-4.14-2.56-6.37s-1.84-4.51-2.8-6.84-1.87-4.54-2.75-6.62l1,.13a7.13,7.13,0,0,0,.91.05c.29,0,.59,0,.91-.05s.64-.08,1-.13q.8,2.4,1.77,5t2,5.37q1.08,2.73,2.2,5.53c.75,1.87,1.52,3.72,2.29,5.57.44-1,.91-2.1,1.42-3.33s1-2.5,1.55-3.82,1-2.67,1.55-4L169.1,263c.47-1.26.9-2.44,1.29-3.53s.71-2,1-2.84a6.28,6.28,0,0,0,1.35.18,6.44,6.44,0,0,0,1.35-.18q-2.83,6.33-5.46,12.55t-5,12.44a9.44,9.44,0,0,0-1.2-.07,7.89,7.89,0,0,0-1.2.07Q160.34,279.44,159.14,276.41Z"/>
 <path class="a" transform="translate(-.05 -.02)" d="m177.71 261.24c-0.06-1.55-0.13-3.1-0.2-4.66l3.26 0.13c1.08 0 2.17 0.05 3.26 0.05s2.17 0 3.24-0.05 2.15-0.08 3.24-0.13a5.46 5.46 0 0 0 0 2.18l-2.13-0.15-2-0.15c-0.72 0-1.5-0.09-2.35-0.13s-1.87-0.05-3.06-0.05q0 1.17-0.09 2.22c0 0.7-0.05 1.5-0.05 2.4s0 1.87 0 2.77 0 1.58 0 2h2.88s1.62-0.05 2.33-0.09l2-0.11 1.69-0.13a5.93 5.93 0 0 0-0.11 1.13 5.76 5.76 0 0 0 0.11 1.09c-0.63-0.07-1.36-0.13-2.2-0.18s-1.67-0.08-2.51-0.09h-2.37-1.76v0.71s0 0.58 0 1v3.6 3.42s0 1.58 0.05 2h2.55 2.71s1.72-0.08 2.51-0.15a19 19 0 0 0 2.06-0.27 2.43 2.43 0 0 0-0.09 0.56v0.56a3.54 3.54 0 0 0 0.11 0.95c-1.09-0.05-2.18-0.07-3.26-0.07h-6.6c-1.09 0-2.2 0-3.31 0.07 0.07-1.55 0.14-3.1 0.2-4.64s0.09-3.11 0.09-4.71v-6.32c-0.1-1.63-0.14-3.21-0.2-4.76z"/>
 <path class="a" transform="translate(-.05 -.02)" d="M195.47,261.29c-.06-1.54-.13-3.11-.2-4.71l2.07.13c.67,0,1.37.05,2.07.05s1.39,0,2.07-.09,1.37-.09,2.07-.09a14.36,14.36,0,0,1,2.91.29,7.17,7.17,0,0,1,2.42,1,4.94,4.94,0,0,1,1.64,1.76,5.63,5.63,0,0,1,.6,2.73,5.56,5.56,0,0,1-.78,3,7.17,7.17,0,0,1-1.91,2.07,9.19,9.19,0,0,1-2.42,1.27,12.5,12.5,0,0,1-2.35.6l1.2,1.53c.51.66,1.08,1.38,1.71,2.17s1.29,1.61,2,2.47,1.33,1.69,2,2.47,1.22,1.51,1.78,2.17,1,1.15,1.35,1.49a8,8,0,0,0-1.09-.07h-2.14a7.35,7.35,0,0,0-1.06.07c-.36-.51-.92-1.27-1.66-2.29s-1.56-2.11-2.46-3.27-1.81-2.32-2.75-3.48-1.79-2.13-2.57-2.93h-1.38v2.66c0,1.6,0,3.18.09,4.73s.13,3.08.2,4.58c-.56-.05-1.15-.07-1.78-.07s-1.22,0-1.78.07c.07-1.5.14-3,.2-4.58s.09-3.13.09-4.73V266C195.56,264.4,195.53,262.83,195.47,261.29Zm4.19,6.93c.4,0,.84,0,1.33,0a11.54,11.54,0,0,0,2.35-.25,7,7,0,0,0,2.24-.89,5.31,5.31,0,0,0,1.69-1.71,5,5,0,0,0,.67-2.71,4.72,4.72,0,0,0-.53-2.35,4.13,4.13,0,0,0-1.37-1.47,5.39,5.39,0,0,0-1.82-.75,9.88,9.88,0,0,0-1.93-.2c-.85,0-1.55,0-2.11.05s-1,.08-1.42.13c0,1.33-.1,2.66-.15,4s-.07,2.62-.07,3.93v2.07A7.28,7.28,0,0,0,199.66,268.22Z"/>
 <path class="a" transform="translate(-.05 -.02)" d="M217.34,278.18a6,6,0,0,0,2.86,2.11,6.1,6.1,0,0,0,2.11.35,5.42,5.42,0,0,0,2.17-.42,4.9,4.9,0,0,0,1.64-1.13,5,5,0,0,0,1-1.67,5.83,5.83,0,0,0,.36-2.06,3.92,3.92,0,0,0-.86-2.66,7,7,0,0,0-2.13-1.64,23.22,23.22,0,0,0-2.75-1.2,13.84,13.84,0,0,1-2.75-1.37,7.19,7.19,0,0,1-2.13-2.09A6.05,6.05,0,0,1,216,263a6.76,6.76,0,0,1,.55-2.78,6.26,6.26,0,0,1,1.58-2.17,7.4,7.4,0,0,1,2.49-1.42,9.86,9.86,0,0,1,3.28-.51,9.7,9.7,0,0,1,3,.42,7.62,7.62,0,0,1,2.37,1.29,8,8,0,0,0-.55,1.31,17.64,17.64,0,0,0-.44,1.75h-.44a10,10,0,0,0-.49-1.11,4.17,4.17,0,0,0-.84-1.11,4.83,4.83,0,0,0-1.26-.86,3.93,3.93,0,0,0-1.75-.35,5.14,5.14,0,0,0-1.87.33,4.47,4.47,0,0,0-1.49.93,4.14,4.14,0,0,0-1,1.44,4.76,4.76,0,0,0-.35,1.82,4,4,0,0,0,.86,2.69,7.43,7.43,0,0,0,2.13,1.66,20.34,20.34,0,0,0,2.75,1.2,15.41,15.41,0,0,1,2.75,1.29,7.13,7.13,0,0,1,2.13,2,5.41,5.41,0,0,1,.85,3.2,8.43,8.43,0,0,1-.6,3.17,7.33,7.33,0,0,1-1.75,2.6,7.76,7.76,0,0,1-2.8,1.71,11,11,0,0,1-3.77.6,9.45,9.45,0,0,1-3.66-.6,10.39,10.39,0,0,1-2.35-1.36,8,8,0,0,0,.45-1.51c.08-.45.16-1,.24-1.73h.44A8.3,8.3,0,0,0,217.34,278.18Z"/>
 <path class="a" transform="translate(-.05 -.02)" d="M235,261.29c-.06-1.54-.13-3.11-.2-4.71l.91.13a6.35,6.35,0,0,0,.87.05,8.46,8.46,0,0,0,.87-.05c.29,0,.59-.08.91-.13-.07,1.6-.14,3.17-.2,4.71s-.09,3.11-.09,4.71v6.26c0,1.6,0,3.18.09,4.73s.13,3.08.2,4.58c-.56-.05-1.15-.07-1.78-.07s-1.22,0-1.78.07c.07-1.5.14-3,.2-4.58s.09-3.13.09-4.73V266Q235.11,263.6,235,261.29Z"/>
 <path class="a" transform="translate(-.05 -.02)" d="M249.45,258.47l-2,0c-.69,0-1.38,0-2.07.07l-2,.13c-.64.05-1.22.11-1.73.18a4.44,4.44,0,0,0,.18-1.16,5.09,5.09,0,0,0-.18-1.13l4.69.13c1.52,0,3.09.05,4.69.05s3.17,0,4.69-.05,3.09-.08,4.69-.13a5.14,5.14,0,0,0-.18,1.16,4.36,4.36,0,0,0,.18,1.13c-.51-.07-1.09-.13-1.73-.18l-2-.13c-.69,0-1.38-.06-2.07-.07l-2,0q-.1,3.75-.11,7.53v6.26c0,1.6,0,3.18.09,4.73s.13,3.08.2,4.58c-.56-.05-1.15-.07-1.78-.07s-1.22,0-1.78.07c.07-1.5.14-3,.2-4.58s.09-3.13.09-4.73V266Q249.56,262.22,249.45,258.47Z"/>
 <path class="a" transform="translate(-.05 -.02)" d="m269.77 269.55c-0.47-0.79-1-1.66-1.56-2.62l-3.6-6c-0.57-1-1.09-1.82-1.55-2.58l-1.06-1.77 1 0.13a8.27 8.27 0 0 0 1 0.05c0.34 0 0.67 0 1-0.05l1-0.13q1.64 3.17 3.33 6.22t3.58 6.37c0.56-0.87 1.14-1.83 1.75-2.88s1.21-2.11 1.82-3.2 1.19-2.19 1.75-3.29 1.08-2.18 1.56-3.22a5.69 5.69 0 0 0 2.84 0c-1.16 1.77-2.21 3.37-3.13 4.8s-1.73 2.73-2.44 3.89-1.32 2.21-1.86 3.15-1 1.78-1.38 2.53v2.87s0 2 0 3 0.05 1.89 0.09 2.73 0.08 1.51 0.13 2c-0.56-0.05-1.15-0.07-1.78-0.07s-1.23 0-1.78 0.07a43.9 43.9 0 0 0 0.25-4.58v-5.64z"/>
 <path class="a" transform="translate(-.05 -.02)" d="M295.21,263.62a11.51,11.51,0,0,1,2.8-4.09,12.15,12.15,0,0,1,4.31-2.55,17.88,17.88,0,0,1,11,0,12,12,0,0,1,4.31,2.55,11.6,11.6,0,0,1,2.8,4.09,15.68,15.68,0,0,1,0,11,11.51,11.51,0,0,1-2.8,4.09,11.34,11.34,0,0,1-4.31,2.49,17.93,17.93,0,0,1-5.53.82,17.47,17.47,0,0,1-5.49-.82,11.6,11.6,0,0,1-4.31-2.49,11.47,11.47,0,0,1-2.8-4.09,15.68,15.68,0,0,1,0-11Zm21.92.29a9.93,9.93,0,0,0-2.13-3.64,8.49,8.49,0,0,0-3.2-2.13,11.74,11.74,0,0,0-7.93,0,8.41,8.41,0,0,0-3.2,2.13,9.93,9.93,0,0,0-2.13,3.64,18.31,18.31,0,0,0,0,10.44,9.93,9.93,0,0,0,2.13,3.64,8.49,8.49,0,0,0,3.2,2.13,11.74,11.74,0,0,0,7.93,0A8.49,8.49,0,0,0,315,278a9.93,9.93,0,0,0,2.13-3.64,18.31,18.31,0,0,0,0-10.44Z"/>
 <path class="a" transform="translate(-.05 -.02)" d="M326,261.29c-.06-1.54-.13-3.11-.2-4.71l3.26.13c1.08,0,2.17.05,3.26.05s2.2,0,3.31-.05l3.64-.13a5.46,5.46,0,0,0,0,2.18c-.66-.07-1.44-.14-2.37-.2s-1.86-.11-2.82-.15l-2.77-.09c-.89,0-1.62,0-2.2,0,0,.85,0,1.66-.05,2.44s0,1.55,0,2.33,0,1.63,0,2.35,0,1.46,0,2.24c1.6,0,3.18,0,4.75-.07s3.11-.15,4.64-.29a4,4,0,0,0,0,2.18c-.61-.07-1.29-.13-2.06-.16s-1.56-.07-2.38-.09-1.66,0-2.51,0h-2.44v3.09c0,1.6,0,3.18.09,4.73s.13,3.08.2,4.58c-.56-.05-1.15-.07-1.78-.07s-1.22,0-1.78.07c.07-1.5.14-3,.2-4.58s.09-3.13.09-4.73V266C326.12,264.4,326.09,262.83,326,261.29Z"/>
 <path class="a" transform="translate(-.05 -.02)" d="M353.46,261.29c-.06-1.54-.13-3.11-.2-4.71l.91.13a6.35,6.35,0,0,0,.87.05,8.46,8.46,0,0,0,.87-.05c.29,0,.59-.08.91-.13-.07,1.6-.14,3.17-.2,4.71s-.09,3.11-.09,4.71q0,4.59,0,7.95c0,2.24.05,4.25.07,6,1.72,0,3.37,0,4.95-.05a48.38,48.38,0,0,0,5.09-.42,4.29,4.29,0,0,0-.18,1.09,3.42,3.42,0,0,0,.18,1c-1.12-.05-2.23-.07-3.35-.07h-6.72c-1.08,0-2.2,0-3.37.07.07-1.5.14-3,.2-4.58s.09-3.13.09-4.73V266C353.55,264.4,353.52,262.83,353.46,261.29Z"/>
 <path class="a" transform="translate(-.05 -.02)" d="M370.27,263.62a11.51,11.51,0,0,1,2.8-4.09,12.15,12.15,0,0,1,4.31-2.55,17.88,17.88,0,0,1,11,0,12,12,0,0,1,4.31,2.55,11.6,11.6,0,0,1,2.8,4.09,15.68,15.68,0,0,1,0,11,11.51,11.51,0,0,1-2.8,4.09,11.34,11.34,0,0,1-4.31,2.49,17.93,17.93,0,0,1-5.53.82,17.47,17.47,0,0,1-5.49-.82,11.6,11.6,0,0,1-4.31-2.49,11.47,11.47,0,0,1-2.8-4.09,14.25,14.25,0,0,1-1-5.51A14.43,14.43,0,0,1,370.27,263.62Zm21.93.29a9.93,9.93,0,0,0-2.13-3.64,8.49,8.49,0,0,0-3.2-2.13,11.74,11.74,0,0,0-7.93,0,8.41,8.41,0,0,0-3.2,2.13,9.93,9.93,0,0,0-2.13,3.64,18.31,18.31,0,0,0,0,10.44,9.93,9.93,0,0,0,2.13,3.64,8.49,8.49,0,0,0,3.2,2.13,11.74,11.74,0,0,0,7.93,0,8.49,8.49,0,0,0,3.2-2.13,9.93,9.93,0,0,0,2.13-3.64,18.31,18.31,0,0,0,0-10.44Z"/>
 <path class="a" transform="translate(-.05 -.02)" d="M412.75,272.14q-4.72-5.07-9.46-10.1c0,.68-.05,1.59-.07,2.73s0,2.69,0,4.66c0,.51,0,1.14,0,1.89s0,1.54,0,2.37,0,1.66.05,2.51,0,1.64.07,2.37.05,1.36.07,1.91.05.92.07,1.11a10,10,0,0,0-1.27-.07,11.37,11.37,0,0,0-1.35.07c.05-.24.1-.69.16-1.35s.12-1.44.16-2.35.1-1.9.16-3,.11-2.13.15-3.2.07-2.11.09-3.13,0-1.93,0-2.73q0-3.5,0-6t-.09-3.75h.58l4.75,5.15q2.53,2.75,5,5.42l4.73,5.06c1.49,1.59,2.8,2.94,3.91,4.06v-4.95q0-3.83,0-7.44c0-2.41-.12-4.69-.24-6.82a5.28,5.28,0,0,0,1.24.18,5.06,5.06,0,0,0,1.16-.18c-.05.53-.1,1.33-.16,2.4s-.12,2.21-.18,3.42-.12,2.4-.16,3.57-.07,2.1-.07,2.8V271c0,.82,0,1.69,0,2.58s0,1.8,0,2.71,0,1.76,0,2.55,0,1.47,0,2.06v1.2h-.51Q417.49,277.21,412.75,272.14Z"/>
 <path class="a" transform="translate(-.05 -.02)" d="M429,261.29c-.06-1.54-.13-3.11-.2-4.71l2.75.13c.91,0,1.82.05,2.75.05s1.84,0,2.75-.09,1.83-.09,2.75-.09a15.91,15.91,0,0,1,5.48.84A9.55,9.55,0,0,1,449,259.8a9.37,9.37,0,0,1,2.13,3.78,17.42,17.42,0,0,1,.67,5,13.47,13.47,0,0,1-1.26,6.13,11.73,11.73,0,0,1-3.2,4,12.09,12.09,0,0,1-4.29,2.17,17.31,17.31,0,0,1-4.49.64c-.83,0-1.64,0-2.44,0s-1.61,0-2.44,0h-2.44c-.8,0-1.61,0-2.44.07.07-1.5.14-3,.2-4.58s.09-3.13.09-4.73V266C429.06,264.4,429,262.83,429,261.29Zm3.3,18.69a13.5,13.5,0,0,0,2.07.27c.87.06,1.77.09,2.69.09a17.62,17.62,0,0,0,4-.47,8.63,8.63,0,0,0,3.58-1.78,9.4,9.4,0,0,0,2.58-3.58,17.76,17.76,0,0,0,.22-11.08,7.9,7.9,0,0,0-2.15-3.22,7.68,7.68,0,0,0-3.26-1.64,17.89,17.89,0,0,0-4.15-.45c-1.09,0-2.11,0-3.06.11s-1.8.16-2.55.25c-.07,1.17-.13,2.38-.16,3.66S432,264.71,432,266v6.26C432,274.88,432.11,277.45,432.26,280Z"/>
 <path class="a" transform="translate(-.05 -.02)" d="M455.89,263.62a11.51,11.51,0,0,1,2.8-4.09A12.15,12.15,0,0,1,463,257a17.88,17.88,0,0,1,11,0,12,12,0,0,1,4.31,2.55,11.6,11.6,0,0,1,2.8,4.09,15.68,15.68,0,0,1,0,11,11.51,11.51,0,0,1-2.8,4.09,11.34,11.34,0,0,1-4.31,2.49,17.93,17.93,0,0,1-5.53.82,17.47,17.47,0,0,1-5.49-.82,11.6,11.6,0,0,1-4.31-2.49,11.47,11.47,0,0,1-2.8-4.09,15.68,15.68,0,0,1,0-11Zm21.92.29a9.93,9.93,0,0,0-2.13-3.64,8.49,8.49,0,0,0-3.2-2.13,11.74,11.74,0,0,0-7.93,0,8.41,8.41,0,0,0-3.2,2.13,9.93,9.93,0,0,0-2.13,3.64,18.31,18.31,0,0,0,0,10.44,9.93,9.93,0,0,0,2.13,3.64,8.49,8.49,0,0,0,3.2,2.13,11.74,11.74,0,0,0,7.93,0,8.49,8.49,0,0,0,3.2-2.13,9.93,9.93,0,0,0,2.13-3.64,18.31,18.31,0,0,0,0-10.44Z"/>
 <path class="a" transform="translate(-.05 -.02)" d="M498.37,272.14q-4.72-5.07-9.46-10.1c0,.68-.05,1.59-.07,2.73s0,2.69,0,4.66c0,.51,0,1.14,0,1.89s0,1.54,0,2.37,0,1.66.05,2.51,0,1.64.07,2.37,0,1.36.07,1.91.05.92.07,1.11a10,10,0,0,0-1.27-.07,11.37,11.37,0,0,0-1.35.07c.05-.24.1-.69.16-1.35s.12-1.44.16-2.35.1-1.9.16-3,.11-2.13.15-3.2.07-2.11.09-3.13,0-1.93,0-2.73q0-3.5,0-6t-.09-3.75h.58l4.75,5.15q2.53,2.75,5,5.42l4.73,5.06c1.49,1.59,2.8,2.94,3.91,4.06v-4.95q0-3.83-.05-7.44c0-2.41-.12-4.69-.24-6.82a5.28,5.28,0,0,0,1.24.18,5.06,5.06,0,0,0,1.16-.18c-.05.53-.1,1.33-.16,2.4s-.12,2.21-.18,3.42-.12,2.4-.16,3.57-.07,2.1-.07,2.8V271c0,.82,0,1.69,0,2.58s0,1.8,0,2.71,0,1.76,0,2.55,0,1.47,0,2.06v1.2h-.51Q503.11,277.21,498.37,272.14Z"/>
 <path class="a" transform="translate(-.05 -.02)" d="M71.62,283.76a32.6,32.6,0,0,0,4.09-5.9,11.77,11.77,0,0,1-1.42,0,4,4,0,0,1-1.12-.2c-.27.64-.59,1.39-1,2.27s-.82,1.81-1.29,2.82l-.3.64A9.92,9.92,0,0,0,71.62,283.76Z"/>
 <path class="b" transform="translate(-.05 -.02)" d="M508,237H2.05a2,2,0,0,1,0-4H508a2,2,0,0,1,0,4Z"/>
 <path class="b" transform="translate(-.05 -.02)" d="M508,4H2.05a2,2,0,0,1,0-4H508a2,2,0,1,1,0,4Z"/>
 <path class="a" transform="translate(-.05 -.02)" d="M2.35,74.45Q2.35,60,2,48.78T1,26.25c2,.23,4.12.44,6.44.61s4.93.26,7.83.26q7.48,0,15.66-.43t15.66-.44a60.09,60.09,0,0,1,14.27,1.57A33.48,33.48,0,0,1,72,32.61,21.43,21.43,0,0,1,79.18,41,27.58,27.58,0,0,1,81.7,53.23a24.18,24.18,0,0,1-3,12.27A29.84,29.84,0,0,1,71.52,74a35.18,35.18,0,0,1-9.22,5.31,47.62,47.62,0,0,1-9,2.61v.35a38.84,38.84,0,0,1,9.4,1.83A35.56,35.56,0,0,1,73,89.26a30.68,30.68,0,0,1,8.26,9,24.81,24.81,0,0,1,3.39,13.31,34.77,34.77,0,0,1-3.39,16,30.48,30.48,0,0,1-9,10.79,34.3,34.3,0,0,1-13,5.83,68.54,68.54,0,0,1-15.14,1.65q-7,0-13-.17t-12.62-.17H8.88a69,69,0,0,0-7.92.35q.69-10.78,1-22t.35-25.67V74.45ZM55.94,56.53a31.83,31.83,0,0,0-1-7.92,16.1,16.1,0,0,0-3.22-6.44A16.7,16.7,0,0,0,46,37.82a20.27,20.27,0,0,0-8.7-1.65q-3.82,0-5.31.09a24.07,24.07,0,0,0-3.22.43q-.34,6.44-.52,13.05c-.12,4.41-.17,8.12-.17,11.14s0,6.12.09,9,.09,5.77.09,8.79h7.83a19.66,19.66,0,0,0,7.22-1.39,19,19,0,0,0,6.35-4.09,20.39,20.39,0,0,0,4.52-6.87A25.26,25.26,0,0,0,55.94,56.53Zm1.22,56.2q0-12.18-5.48-18.18t-15.92-6c-1.62,0-3,0-4.18.09s-2.26.09-3.31.09q0,3.66-.09,7.57t-.09,9.31c0,2.78,0,5.63.09,8.53s.09,5.74.09,8.53,0,5.34.09,7.66.09,4.24.09,5.74c1.62.12,3.13.2,4.52.26s3.07.09,5.05.09a17.54,17.54,0,0,0,7.31-1.57,17.28,17.28,0,0,0,6.09-4.61,23.46,23.46,0,0,0,4.18-7.4A30,30,0,0,0,57.16,112.73Z"/>
 <path class="a" transform="translate(-.05 -.02)" d="M211.67,145.79q-4.17-.34-7.92-.35H189c-2.5,0-5,.11-7.4.35q-2.79-8.52-5.74-17.4t-6.26-17.75q-5.56-.17-11.14-.26t-11.14-.09c-3,0-6,0-9.05.09s-6,.15-9,.26q-3.48,8.88-6.44,17.75t-5.39,17.4a25.11,25.11,0,0,0-4.09-.35H105a30.81,30.81,0,0,0-4.52.35q2.09-4.51,5.57-12.53t7.66-18.1l9-21.66q4.78-11.56,9.57-23.4t9.4-23.32q4.6-11.49,8.44-21.4c1.16.23,2.26.43,3.31.61a19.57,19.57,0,0,0,3.31.26A20.66,20.66,0,0,0,160,26c1.05-.17,2.14-.38,3.31-.61q5.56,14.79,11.92,31.67T188,90.2q6.43,16.27,12.53,30.88T211.67,145.79ZM150.08,59q-4.53,10.44-8.53,20.62t-7.83,20.79h31.84Q161.73,89.76,158,79.58T150.08,59Z"/>
 <path class="a" transform="translate(-.05 -.02)" d="M275.93,67.05q3.48-6.34,6.79-13.31t6.44-14q3.13-7,6.09-13.49c1.27.23,2.58.44,3.92.61a32.31,32.31,0,0,0,4.09.26,32.42,32.42,0,0,0,4.09-.26c1.33-.17,2.75-.38,4.26-.61q-3,4.88-7.39,12.79t-9.48,17.14q-5.06,9.22-10.18,18.88t-9.31,17.83c0,2.78-.06,5.6-.17,8.44s-.17,5.71-.17,8.61q0,8.88.26,17.57t1.48,18.27c-2.44-.23-4.9-.35-7.4-.35H254.46c-2.5,0-5,.11-7.39.35q.35-8,1.22-16.36a161.19,161.19,0,0,0,.87-16.7c0-2.67,0-5.36-.09-8.09s-.15-5.42-.26-8.09q-4.35-8.7-10-19.4t-11-20.79q-5.31-10.1-9.74-18.27t-6.53-11.83c2.67.23,5.28.44,7.83.61s5.16.26,7.83.26,5.25-.09,7.74-.26,5.07-.38,7.74-.61q3,6.44,6.7,14.27t7.4,15.31q3.66,7.49,6.79,13.57t5.05,9H269C271.29,75.09,273.61,71.29,275.93,67.05Z"/>
 <path class="a" transform="translate(-.05 -.02)" d="M339.74,48.78q-.35-11.22-1-22.53,7.83.18,15.49.52t15.49.35q12.87,0,22.88-.26t13.49-.61a31.32,31.32,0,0,0-.7,7.31c0,1.86.06,3.31.17,4.35s.29,2.21.52,3.48Q401,41,395,40.69T383.33,40q-5.65-.35-10.18-.52c-3-.11-5.16-.17-6.44-.17q-.69,9.57-.78,19t-.09,19q11.31-.17,20.45-.52t19-.87c-.35,2-.58,3.48-.7,4.52a29.07,29.07,0,0,0-.17,3.31,16.82,16.82,0,0,0,.26,2.87c.17,1,.38,2.41.61,4.26q-19.83-1.56-39.5-1.57,0,5.57-.09,11.14c-.06,3.71-.09,7.43-.09,11.14q0,11.31.52,21.75,9.92,0,19.84-.52T406,131c-.23,1.28-.41,2.44-.52,3.48a40.91,40.91,0,0,0-.17,4.35c0,1.86.06,3.31.17,4.35a12.76,12.76,0,0,0,.52,2.61c-3.13-.12-7-.2-11.57-.26s-10.88-.09-18.88-.09H348q-3.92,0-5.92.09c-1.33.06-2.47.14-3.39.26q.69-10.78,1-22t.35-25.67V74.46Q340.1,60,339.74,48.78Z"/>
 <path class="a" transform="translate(-.05 -.02)" d="M474.24,34.78q-8,0-13.05,4.7a14.53,14.53,0,0,0-5.05,11A14.57,14.57,0,0,0,460.06,61a41.37,41.37,0,0,0,9.83,7.39q5.91,3.31,12.7,6.35a66.29,66.29,0,0,1,12.7,7.48A38.83,38.83,0,0,1,505.12,93Q509,99.34,509,109.25a37.68,37.68,0,0,1-3.31,15.92,35,35,0,0,1-9.4,12.35,42.21,42.21,0,0,1-14.53,7.83,61.81,61.81,0,0,1-18.88,2.7,64.59,64.59,0,0,1-16.79-2q-7.39-2-11.22-5,1.74-6.09,3-11.14T440,119h3.31a22.75,22.75,0,0,0,2.61,7.22,23,23,0,0,0,4.87,6,21.55,21.55,0,0,0,7.13,4.09,27.93,27.93,0,0,0,9.4,1.48q10.44,0,15.4-5.22a17.54,17.54,0,0,0,5-12.53,15.36,15.36,0,0,0-3.83-10.79,38,38,0,0,0-9.57-7.39q-5.75-3.22-12.53-6.26a63.88,63.88,0,0,1-12.53-7.4,37.53,37.53,0,0,1-9.57-10.7q-3.83-6.34-3.83-16.27a37.7,37.7,0,0,1,3.22-16,34.31,34.31,0,0,1,8.61-11.66A37.15,37.15,0,0,1,460,26.42,45.35,45.35,0,0,1,474.92,24a54.12,54.12,0,0,1,16.44,2.26,38,38,0,0,1,12.09,6.26q-1.56,4-2.7,7.74c-.76,2.5-1.71,5.65-2.87,9.48h-2.61Q489.74,34.8,474.24,34.78Z"/>
</svg>
