<?xml version="1.0" encoding="UTF-8"?>
<svg xmlns="http://www.w3.org/2000/svg" version="1.1" viewBox="0 0 301.07 201.41">
  <defs>
    <style>
      .cls-1 {
        fill: #1e1e1e;
      }

      .cls-2 {
        fill: #1e1e1e;
      }

      .cls-3 {
        fill: #d61726;
      }
    </style>
  </defs>
  <!-- Generator: Adobe Illustrator 28.7.1, SVG Export Plug-In . SVG Version: 1.2.0 Build 142)  -->
  <g>
    <g id="Layer_1">
      <g>
        <g>
          <path class="cls-1" d="M21.44,172.36c-.48.23-1.05.44-1.72.62-.67.18-1.42.35-2.25.49-.83.15-1.69.22-2.6.22-1.92,0-3.7-.27-5.34-.82-1.63-.55-3.04-1.38-4.22-2.5-1.18-1.12-2.11-2.49-2.78-4.11s-1-3.47-1-5.54.33-3.92,1-5.54c.67-1.62,1.61-2.99,2.81-4.11,1.21-1.12,2.65-1.97,4.33-2.56,1.68-.58,3.53-.88,5.56-.88,1.61,0,3.08.17,4.4.49,1.33.33,2.5.73,3.53,1.19-.2.34-.35.8-.47,1.39-.12.58-.22,1.07-.29,1.46l-.22.07c-.24-.29-.58-.62-1.02-.99-.44-.37-.95-.72-1.54-1.06-.58-.34-1.24-.63-1.97-.86-.73-.23-1.54-.35-2.41-.35-1.44,0-2.77.23-4,.69s-2.3,1.18-3.22,2.14c-.91.96-1.63,2.18-2.14,3.65-.51,1.47-.77,3.22-.77,5.25s.26,3.77.77,5.25c.51,1.47,1.22,2.69,2.14,3.66.91.96,1.99,1.68,3.22,2.14s2.56.69,4,.69c.88,0,1.69-.11,2.43-.33.74-.22,1.42-.48,2.05-.79.62-.3,1.18-.63,1.68-.99s.92-.66,1.26-.93l.15.15-.33,2.16c-.22.2-.57.41-1.04.64Z"/>
          <path class="cls-1" d="M26.85,152.84c-.06-1.55-.13-3.12-.2-4.73.32.05.62.09.91.13.29.04.58.05.88.05s.58-.02.88-.05c.29-.04.6-.08.91-.13-.07,1.61-.14,3.19-.2,4.73-.06,1.55-.09,3.12-.09,4.73v6.29c0,1.61.03,3.19.09,4.75.06,1.56.13,3.09.2,4.61-.56-.05-1.16-.07-1.79-.07s-1.23.02-1.79.07c.07-1.51.14-3.05.2-4.61s.09-3.14.09-4.75v-6.29c0-1.61-.03-3.19-.09-4.73Z"/>
          <path class="cls-1" d="M41.27,150c-.63,0-1.3,0-1.99.02-.69.01-1.39.04-2.08.07-.69.04-1.37.08-2.01.13s-1.22.11-1.74.18c.12-.44.18-.83.18-1.17,0-.27-.06-.65-.18-1.13,1.61.05,3.18.09,4.71.13,1.54.04,3.11.05,4.71.05s3.18-.02,4.71-.05c1.54-.04,3.11-.08,4.72-.13-.12.49-.18.88-.18,1.17,0,.32.06.7.18,1.13-.51-.07-1.09-.13-1.74-.18-.65-.05-1.32-.09-2.01-.13-.69-.04-1.39-.06-2.08-.07s-1.36-.02-1.99-.02c-.07,2.51-.11,5.03-.11,7.57v6.29c0,1.61.03,3.19.09,4.75s.13,3.09.2,4.61c-.56-.05-1.16-.07-1.79-.07s-1.23.02-1.79.07c.07-1.51.14-3.05.2-4.61.06-1.56.09-3.14.09-4.75v-6.29c0-2.53-.04-5.06-.11-7.57Z"/>
          <path class="cls-1" d="M63.17,162.94c-.24-.41-.6-1.02-1.08-1.81-.47-.79-1-1.67-1.57-2.63-.57-.96-1.18-1.97-1.81-3.03-.63-1.06-1.24-2.07-1.81-3.03-.57-.96-1.09-1.83-1.55-2.59s-.82-1.35-1.06-1.74c.34.05.68.09,1.01.13.33.04.66.05,1,.05s.68-.02,1-.05c.33-.04.66-.08,1.01-.13,1.1,2.12,2.21,4.2,3.34,6.25s2.33,4.18,3.6,6.4c.56-.88,1.14-1.84,1.75-2.89s1.22-2.12,1.83-3.22c.61-1.1,1.19-2.2,1.75-3.31.56-1.11,1.08-2.19,1.57-3.23.61.12,1.08.18,1.43.18s.82-.06,1.42-.18c-1.17,1.78-2.22,3.39-3.14,4.82-.93,1.44-1.74,2.74-2.45,3.91-.71,1.17-1.33,2.22-1.86,3.16-.54.94-1,1.79-1.39,2.54,0,.9,0,1.86.02,2.89s.03,2.03.05,3.01c.02.99.06,1.9.09,2.74.04.84.08,1.52.13,2.03-.56-.05-1.16-.07-1.79-.07s-1.23.02-1.79.07c.15-1.27.23-2.8.26-4.61.02-1.8.04-3.69.04-5.67Z"/>
          <path class="cls-1" d="M89.54,169.8c.33.45.73.86,1.21,1.22.48.37,1.03.66,1.66.9.63.23,1.34.35,2.12.35s1.53-.14,2.17-.42c.65-.28,1.19-.66,1.64-1.13s.8-1.04,1.04-1.68c.24-.65.37-1.33.37-2.06,0-1.12-.29-2.01-.86-2.67-.57-.66-1.29-1.21-2.14-1.64s-1.77-.84-2.76-1.21c-.99-.37-1.91-.82-2.76-1.37-.85-.55-1.57-1.25-2.14-2.1-.57-.85-.86-2-.86-3.44,0-1.02.18-1.96.55-2.8s.9-1.57,1.59-2.17,1.53-1.08,2.5-1.43c.97-.34,2.07-.51,3.29-.51s2.18.14,3.03.42c.85.28,1.64.71,2.38,1.3-.22.42-.4.85-.55,1.32-.15.46-.29,1.05-.44,1.75h-.44c-.12-.34-.29-.71-.49-1.11-.21-.4-.49-.77-.84-1.12-.35-.34-.77-.63-1.26-.86-.49-.23-1.07-.35-1.75-.35s-1.31.11-1.88.33c-.57.22-1.07.53-1.5.93-.43.4-.76.88-.99,1.44-.23.56-.35,1.17-.35,1.83,0,1.15.29,2.05.86,2.71.57.66,1.28,1.21,2.14,1.66.85.45,1.77.85,2.76,1.21.99.35,1.91.79,2.76,1.3.85.51,1.57,1.17,2.14,1.97.57.8.86,1.88.86,3.22,0,1.12-.2,2.18-.6,3.18-.4,1-.99,1.87-1.75,2.61s-1.71,1.32-2.81,1.72c-1.11.4-2.37.6-3.78.6-1.51,0-2.74-.2-3.67-.6-.94-.4-1.72-.86-2.36-1.37.22-.56.37-1.07.46-1.52.08-.45.17-1.03.24-1.74h.44c.19.44.46.88.79,1.33Z"/>
          <path class="cls-1" d="M112.31,150c-.63,0-1.3,0-1.99.02-.69.01-1.39.04-2.08.07-.69.04-1.37.08-2.01.13s-1.22.11-1.74.18c.12-.44.18-.83.18-1.17,0-.27-.06-.65-.18-1.13,1.61.05,3.18.09,4.71.13,1.54.04,3.11.05,4.71.05s3.18-.02,4.71-.05c1.54-.04,3.11-.08,4.72-.13-.12.49-.18.88-.18,1.17,0,.32.06.7.18,1.13-.51-.07-1.09-.13-1.74-.18-.65-.05-1.32-.09-2.01-.13-.69-.04-1.39-.06-2.08-.07s-1.36-.02-1.99-.02c-.07,2.51-.11,5.03-.11,7.57v6.29c0,1.61.03,3.19.09,4.75s.13,3.09.2,4.61c-.56-.05-1.16-.07-1.79-.07s-1.23.02-1.79.07c.07-1.51.14-3.05.2-4.61.06-1.56.09-3.14.09-4.75v-6.29c0-2.53-.04-5.06-.11-7.57Z"/>
          <path class="cls-1" d="M157.4,151.25c-.55-.44-1.16-.82-1.83-1.15-.67-.33-1.41-.6-2.23-.8s-1.69-.31-2.61-.31c-1.51,0-2.92.23-4.22.69s-2.44,1.18-3.4,2.14-1.72,2.18-2.27,3.65c-.55,1.47-.82,3.22-.82,5.25,0,1.78.24,3.39.73,4.83s1.2,2.65,2.14,3.64c.94.99,2.08,1.75,3.44,2.28,1.35.54,2.88.8,4.59.8.51,0,1.05-.02,1.61-.07s1.1-.12,1.63-.22c.52-.1,1.01-.22,1.46-.37s.83-.32,1.15-.51c.02-.73.04-1.46.05-2.19.01-.73.02-1.47.02-2.23,0-.85-.02-1.71-.05-2.56-.04-.85-.08-1.67-.13-2.45.61.12,1.2.18,1.76.18.27,0,.54-.01.8-.04.27-.02.53-.07.77-.15-.05.56-.08,1.44-.11,2.65-.02,1.21-.04,2.8-.04,4.77,0,.49,0,.98.02,1.48.01.5.02.99.02,1.48-.51.2-1.15.4-1.92.6s-1.58.38-2.45.51-1.73.26-2.6.37-1.65.16-2.36.16c-2.17,0-4.12-.26-5.87-.79-1.74-.52-3.22-1.33-4.44-2.43s-2.16-2.46-2.81-4.09c-.66-1.63-.99-3.52-.99-5.67s.34-3.92,1.02-5.54c.68-1.62,1.64-2.99,2.89-4.11,1.24-1.12,2.75-1.97,4.51-2.56,1.77-.58,3.72-.88,5.87-.88,1.24,0,2.34.07,3.31.2.96.13,1.82.31,2.56.53.74.22,1.39.45,1.96.69.56.24,1.06.47,1.5.69-.2.34-.37.78-.53,1.32-.16.54-.26,1.04-.31,1.5h-.44c-.37-.44-.82-.88-1.37-1.32Z"/>
          <path class="cls-1" d="M165.3,152.78c-.06-1.56-.13-3.12-.2-4.68,1.1.05,2.19.09,3.27.13,1.08.04,2.17.05,3.27.05s2.18-.02,3.25-.05c1.07-.04,2.16-.08,3.25-.13-.07.37-.11.73-.11,1.1s.04.73.11,1.1c-.78-.05-1.49-.1-2.14-.15s-1.33-.1-2.05-.15-1.5-.09-2.36-.13-1.88-.05-3.07-.05c-.02.78-.05,1.52-.09,2.23-.04.71-.05,1.51-.05,2.41,0,.95,0,1.88.02,2.78.01.9.02,1.58.02,2.05,1.07,0,2.04-.01,2.89-.04.85-.02,1.63-.05,2.34-.09.71-.04,1.36-.07,1.96-.11.6-.04,1.16-.08,1.7-.13-.07.37-.11.74-.11,1.13,0,.37.04.73.11,1.1-.63-.07-1.37-.13-2.21-.18-.84-.05-1.68-.08-2.52-.09-.84-.01-1.63-.02-2.38-.04-.74-.01-1.33-.02-1.77-.02,0,.22,0,.46-.02.71-.01.26-.02.58-.02.97v3.62c0,1.39,0,2.53.02,3.44.01.9.03,1.58.05,2.05h2.56c.93,0,1.83-.02,2.72-.05.89-.04,1.73-.08,2.52-.15.79-.06,1.48-.15,2.07-.27-.05.17-.08.36-.09.57-.01.21-.02.4-.02.57,0,.39.04.71.11.95-1.1-.05-2.19-.07-3.27-.07h-6.63c-1.1,0-2.21.02-3.33.07.07-1.56.14-3.11.2-4.66s.09-3.12.09-4.73v-6.29c0-1.61-.03-3.19-.09-4.75Z"/>
          <path class="cls-1" d="M180.71,160.71c0-2.07.33-3.92,1-5.54.67-1.62,1.61-2.99,2.81-4.11,1.21-1.12,2.65-1.97,4.33-2.56,1.68-.58,3.52-.88,5.52-.88s3.88.29,5.55.88c1.68.58,3.12,1.44,4.33,2.56,1.21,1.12,2.14,2.49,2.81,4.11.67,1.62,1.01,3.47,1.01,5.54s-.34,3.92-1.01,5.54-1.61,2.99-2.81,4.11c-1.21,1.12-2.65,1.96-4.33,2.5-1.68.55-3.53.82-5.55.82s-3.84-.27-5.52-.82c-1.68-.55-3.12-1.38-4.33-2.5-1.21-1.12-2.14-2.49-2.81-4.11s-1-3.47-1-5.54ZM204.5,160.71c0-2.02-.26-3.77-.77-5.25-.51-1.47-1.22-2.69-2.14-3.65s-1.99-1.68-3.22-2.14-2.56-.69-4-.69-2.74.23-3.97.69-2.3,1.18-3.22,2.14c-.91.96-1.62,2.18-2.14,3.65-.51,1.47-.77,3.22-.77,5.25s.26,3.77.77,5.25c.51,1.47,1.22,2.69,2.14,3.66.91.96,1.99,1.68,3.22,2.14s2.55.69,3.97.69,2.77-.23,4-.69,2.3-1.18,3.22-2.14c.91-.96,1.63-2.18,2.14-3.66.51-1.47.77-3.22.77-5.25Z"/>
          <path class="cls-1" d="M212.55,157.57c0-1.61-.03-3.19-.09-4.73-.06-1.55-.13-3.12-.2-4.73.71.05,1.4.09,2.08.13.68.04,1.38.05,2.08.05s1.4-.03,2.08-.09c.68-.06,1.38-.09,2.08-.09,1.02,0,2,.1,2.92.29.93.2,1.74.52,2.43.97.7.45,1.24,1.04,1.64,1.77.4.73.6,1.64.6,2.74,0,1.17-.26,2.17-.79,3.02-.53.84-1.16,1.54-1.92,2.08-.76.55-1.57.97-2.43,1.28-.87.3-1.65.51-2.36.6.29.37.7.88,1.21,1.54s1.08,1.38,1.72,2.17c.63.79,1.29,1.62,1.97,2.49.68.87,1.34,1.69,1.97,2.49.63.79,1.23,1.52,1.79,2.17.56.66,1.01,1.16,1.35,1.5-.37-.05-.73-.07-1.1-.07h-2.16c-.37,0-.72.02-1.06.07-.37-.51-.92-1.28-1.66-2.3-.74-1.02-1.56-2.12-2.47-3.29-.9-1.17-1.82-2.33-2.76-3.49s-1.8-2.14-2.58-2.94h-1.39v2.67c0,1.61.03,3.19.09,4.75.06,1.56.13,3.09.2,4.61-.56-.05-1.16-.07-1.79-.07s-1.23.02-1.79.07c.07-1.51.14-3.05.2-4.61s.09-3.14.09-4.75v-6.29ZM215.55,159.65c.34.07.71.12,1.12.15.4.02.85.04,1.33.04.75,0,1.54-.08,2.36-.26.82-.17,1.56-.47,2.25-.9.68-.43,1.25-1,1.7-1.72s.68-1.63.68-2.72c0-.95-.18-1.74-.53-2.36-.35-.62-.81-1.11-1.37-1.48-.56-.37-1.17-.62-1.83-.75-.66-.13-1.3-.2-1.94-.2-.85,0-1.56.02-2.12.05-.56.04-1.04.08-1.43.13-.05,1.34-.1,2.67-.15,3.98-.05,1.32-.07,2.63-.07,3.95v2.08Z"/>
          <path class="cls-1" d="M252.67,151.25c-.55-.44-1.16-.82-1.83-1.15-.67-.33-1.41-.6-2.23-.8s-1.69-.31-2.61-.31c-1.51,0-2.92.23-4.22.69-1.3.46-2.44,1.18-3.4,2.14s-1.72,2.18-2.27,3.65c-.55,1.47-.82,3.22-.82,5.25,0,1.78.24,3.39.73,4.83.49,1.44,1.2,2.65,2.14,3.64.94.99,2.08,1.75,3.44,2.28,1.35.54,2.88.8,4.59.8.51,0,1.05-.02,1.61-.07s1.1-.12,1.63-.22c.52-.1,1.01-.22,1.46-.37s.83-.32,1.15-.51c.02-.73.04-1.46.05-2.19.01-.73.02-1.47.02-2.23,0-.85-.02-1.71-.05-2.56-.04-.85-.08-1.67-.13-2.45.61.12,1.2.18,1.76.18.27,0,.54-.01.8-.04.27-.02.53-.07.77-.15-.05.56-.08,1.44-.11,2.65-.02,1.21-.04,2.8-.04,4.77,0,.49,0,.98.02,1.48.01.5.02.99.02,1.48-.51.2-1.15.4-1.92.6s-1.58.38-2.45.51-1.73.26-2.6.37-1.65.16-2.36.16c-2.17,0-4.12-.26-5.87-.79-1.74-.52-3.22-1.33-4.44-2.43s-2.16-2.46-2.81-4.09-.99-3.52-.99-5.67.34-3.92,1.02-5.54c.68-1.62,1.64-2.99,2.89-4.11,1.24-1.12,2.75-1.97,4.51-2.56,1.77-.58,3.72-.88,5.87-.88,1.24,0,2.34.07,3.31.2s1.82.31,2.56.53c.74.22,1.39.45,1.96.69.56.24,1.06.47,1.5.69-.2.34-.37.78-.53,1.32-.16.54-.26,1.04-.31,1.5h-.44c-.37-.44-.82-.88-1.37-1.32Z"/>
          <path class="cls-1" d="M260.57,152.78c-.06-1.56-.13-3.12-.2-4.68,1.1.05,2.19.09,3.27.13,1.08.04,2.17.05,3.27.05s2.18-.02,3.25-.05c1.07-.04,2.16-.08,3.25-.13-.07.37-.11.73-.11,1.1s.04.73.11,1.1c-.78-.05-1.49-.1-2.14-.15s-1.33-.1-2.05-.15-1.5-.09-2.36-.13-1.88-.05-3.07-.05c-.02.78-.05,1.52-.09,2.23-.04.71-.05,1.51-.05,2.41,0,.95,0,1.88.02,2.78.01.9.02,1.58.02,2.05,1.07,0,2.04-.01,2.89-.04.85-.02,1.63-.05,2.34-.09.71-.04,1.36-.07,1.96-.11.6-.04,1.16-.08,1.7-.13-.07.37-.11.74-.11,1.13,0,.37.04.73.11,1.1-.63-.07-1.37-.13-2.21-.18-.84-.05-1.68-.08-2.52-.09-.84-.01-1.63-.02-2.38-.04-.74-.01-1.33-.02-1.77-.02,0,.22,0,.46-.02.71-.01.26-.02.58-.02.97v3.62c0,1.39,0,2.53.02,3.44.01.9.03,1.58.05,2.05h2.56c.93,0,1.83-.02,2.72-.05.89-.04,1.73-.08,2.52-.15.79-.06,1.48-.15,2.07-.27-.05.17-.08.36-.09.57-.01.21-.02.4-.02.57,0,.39.04.71.11.95-1.1-.05-2.19-.07-3.27-.07h-6.63c-1.1,0-2.21.02-3.33.07.07-1.56.14-3.11.2-4.66s.09-3.12.09-4.73v-6.29c0-1.61-.03-3.19-.09-4.75Z"/>
          <path class="cls-1" d="M279.11,148.09c.24-.3.61-.46,1.1-.46.29,0,.59.1.9.29s.46.51.46.95c0,.29-.06.56-.18.8-.12.24-.24.49-.37.73l-4.57,7.75-.66-.26,2.81-8.88c.1-.32.27-.63.51-.93Z"/>
          <path class="cls-1" d="M286.36,169.8c.33.45.73.86,1.21,1.22.48.37,1.03.66,1.66.9.63.23,1.34.35,2.12.35s1.53-.14,2.18-.42c.64-.28,1.19-.66,1.64-1.13s.8-1.04,1.04-1.68c.24-.65.37-1.33.37-2.06,0-1.12-.29-2.01-.86-2.67-.57-.66-1.29-1.21-2.14-1.64-.85-.44-1.77-.84-2.76-1.21s-1.91-.82-2.76-1.37c-.85-.55-1.57-1.25-2.14-2.1-.57-.85-.86-2-.86-3.44,0-1.02.18-1.96.55-2.8s.9-1.57,1.59-2.17c.7-.61,1.53-1.08,2.5-1.43.97-.34,2.07-.51,3.29-.51s2.18.14,3.04.42c.85.28,1.64.71,2.38,1.3-.22.42-.4.85-.55,1.32-.14.46-.29,1.05-.44,1.75h-.44c-.12-.34-.29-.71-.49-1.11-.21-.4-.49-.77-.84-1.12-.35-.34-.77-.63-1.26-.86-.49-.23-1.07-.35-1.76-.35s-1.31.11-1.88.33c-.57.22-1.07.53-1.5.93-.43.4-.76.88-.99,1.44-.23.56-.35,1.17-.35,1.83,0,1.15.29,2.05.86,2.71.57.66,1.29,1.21,2.14,1.66.85.45,1.77.85,2.76,1.21.99.35,1.91.79,2.76,1.3.85.51,1.56,1.17,2.14,1.97.57.8.86,1.88.86,3.22,0,1.12-.2,2.18-.6,3.18-.4,1-.99,1.87-1.75,2.61s-1.71,1.32-2.81,1.72-2.37.6-3.78.6c-1.51,0-2.73-.2-3.67-.6-.94-.4-1.72-.86-2.36-1.37.22-.56.37-1.07.46-1.52.09-.45.17-1.03.24-1.74h.44c.19.44.46.88.79,1.33Z"/>
        </g>
        <path class="cls-3" d="M296.23,2.33H1.54C.9,2.33.37,1.81.37,1.17S.9,0,1.54,0h294.69c.64,0,1.17.52,1.17,1.17s-.52,1.17-1.17,1.17Z"/>
        <g>
          <path class="cls-2" d="M16.68,114.6c0,.62-.08,1.18-.23,1.67-.16.49-.35.92-.57,1.29-.22.37-.44.67-.67.9-.22.23-.4.42-.53.55-.22.22-.5.45-.82.67-.32.22-.72.43-1.18.62-.47.19-1.03.35-1.69.47-.66.12-1.44.18-2.35.18-.71,0-1.41-.03-2.1-.08-.69-.06-1.39-.08-2.1-.08-.53,0-1.07.02-1.6.07-.53.04-1.07.08-1.6.1.09-1.94.15-3.94.18-6.02.03-2.08.05-4.02.05-5.82s-.02-3.69-.05-5.52c-.03-1.84-.11-3.68-.22-5.52.42.04.82.08,1.2.1.38.02.95.04,1.7.07.18,0,.49-.01.93-.03.44-.02.91-.04,1.4-.05.49-.01.95-.03,1.39-.05.43-.02.74-.03.92-.03.93,0,1.82.08,2.65.23s1.57.43,2.22.83c.65.4,1.16.95,1.54,1.64.38.69.57,1.58.57,2.67,0,.78-.17,1.47-.5,2.07-.33.6-.77,1.12-1.3,1.55-.53.43-1.13.78-1.8,1.05-.67.27-1.35.45-2.04.53.91.09,1.77.25,2.57.47.8.22,1.5.56,2.1,1.02.6.46,1.07,1.05,1.42,1.77.34.72.52,1.63.52,2.72ZM5.5,107.89c.24.02.48.04.7.05.22.01.44.02.67.02,1.47,0,2.59-.37,3.37-1.12.78-.75,1.17-1.85,1.17-3.32,0-1.13-.3-2.05-.9-2.75s-1.48-1.05-2.64-1.05c-.78,0-1.55.03-2.3.1-.02.45-.04.9-.05,1.35-.01.46-.02.91-.02,1.35v5.37ZM5.5,116.3c0,.27,0,.68.02,1.23.01.56.03,1.07.05,1.54.33.04.63.09.9.13.27.04.57.07.9.07,1.58,0,2.79-.39,3.64-1.18.85-.79,1.27-2,1.27-3.62,0-.96-.13-1.75-.4-2.39-.27-.63-.64-1.15-1.12-1.54-.48-.39-1.06-.66-1.75-.82-.69-.16-1.46-.23-2.3-.23-.38,0-.78.03-1.2.1v6.71Z"/>
          <path class="cls-2" d="M25.19,100.58c-.04,1.27-.07,2.66-.08,4.17-.01,1.51-.02,2.99-.02,4.44,0,1.34.01,2.43.03,3.29s.07,1.56.13,2.12c.07.56.17,1.01.3,1.37.13.36.32.7.57,1.03.49.65,1.17,1.15,2.04,1.5.87.36,1.89.53,3.07.53,1.36,0,2.53-.32,3.52-.95.99-.63,1.67-1.46,2.05-2.49.07-.18.13-.38.18-.62.06-.23.1-.53.13-.88s.06-.77.08-1.25c.02-.48.03-1.06.03-1.75,0-2.18-.02-4.36-.05-6.53-.03-2.17-.12-4.34-.25-6.53.24.04.49.09.73.13.24.04.5.07.77.07s.53-.02.8-.07c.27-.04.52-.09.77-.13l-.1,1.6c-.04.71-.08,1.64-.12,2.79s-.06,2.34-.08,3.59c-.02,1.25-.04,2.47-.07,3.67-.02,1.2-.04,2.23-.07,3.07-.02.98-.11,1.84-.25,2.57-.14.73-.36,1.39-.65,1.95-.29.57-.64,1.06-1.05,1.47-.41.41-.9.8-1.45,1.15-.78.51-1.69.88-2.72,1.1-1.03.22-2,.33-2.89.33-1,0-2.03-.09-3.07-.28-1.05-.19-2.02-.52-2.92-1-.9-.48-1.67-1.13-2.32-1.97-.65-.83-1.06-1.9-1.23-3.19-.04-.24-.07-.56-.07-.95v-9.9c0-.42,0-.9-.02-1.42s-.02-1.05-.03-1.59c-.01-.53-.03-1.06-.05-1.59-.02-.52-.04-1-.07-1.42.38.04.77.09,1.17.13s.79.07,1.17.07.75-.02,1.12-.07c.37-.04.72-.09,1.05-.13l-.1,2.54Z"/>
          <path class="cls-2" d="M45.12,115.94c.38.85.77,1.52,1.17,2.02.4.5.82.88,1.25,1.15.43.27.88.45,1.34.53.46.09.93.13,1.42.13.67,0,1.27-.11,1.8-.32.53-.21.99-.5,1.37-.87.38-.37.67-.81.88-1.32.21-.51.32-1.07.32-1.67,0-.67-.11-1.23-.33-1.69-.22-.46-.48-.83-.78-1.13-.3-.3-.61-.53-.92-.68-.31-.16-.55-.27-.7-.33-.47-.2-1.04-.43-1.72-.7-.68-.27-1.25-.5-1.72-.7-.8-.36-1.47-.73-2.02-1.13-.55-.4-.98-.84-1.3-1.32-.32-.48-.55-1-.68-1.57-.13-.57-.2-1.2-.2-1.89,0-.73.12-1.5.37-2.29.24-.79.66-1.51,1.25-2.15.59-.65,1.39-1.18,2.39-1.6,1-.42,2.26-.63,3.77-.63,1.22,0,2.25.13,3.07.4.82.27,1.65.59,2.47.97-.18.4-.32.73-.42,1-.1.27-.18.51-.25.72-.07.21-.13.43-.18.65-.06.22-.12.49-.18.8h-.47c-.25-.96-.77-1.68-1.57-2.17-.8-.49-1.74-.73-2.8-.73-1.31,0-2.3.36-2.95,1.07-.66.71-.98,1.56-.98,2.54,0,.6.11,1.11.32,1.52.21.41.51.77.9,1.08.39.31.87.59,1.45.83.58.25,1.23.51,1.97.8.65.25,1.2.46,1.65.65.46.19.86.37,1.22.55.36.18.66.36.92.55.26.19.51.42.75.68.36.38.64.77.85,1.18.21.41.37.82.48,1.22.11.4.19.78.23,1.13.04.36.07.65.07.87,0,.85-.16,1.7-.47,2.57-.31.87-.81,1.65-1.49,2.35s-1.55,1.27-2.62,1.72c-1.07.44-2.37.67-3.91.67-.71,0-1.39-.06-2.02-.18-.63-.12-1.21-.27-1.74-.45-.52-.18-1-.36-1.42-.55-.42-.19-.78-.36-1.07-.52.13-.42.24-.78.33-1.08.09-.3.16-.58.2-.85.04-.27.08-.54.12-.82.03-.28.07-.62.12-1.02h.47Z"/>
          <path class="cls-2" d="M63.51,105.76c0-1.07-.01-2.21-.03-3.44-.02-1.22-.12-2.65-.3-4.27.31.04.72.09,1.23.13.51.04.89.07,1.13.07.38,0,.77-.02,1.17-.07s.8-.09,1.2-.13c-.09.62-.16,1.42-.22,2.39-.06.97-.09,2-.12,3.09-.02,1.09-.03,2.18-.03,3.25v2.89c0,2.49.02,4.66.07,6.49.04,1.84.13,3.43.27,4.79-.38-.02-.77-.06-1.17-.12s-.79-.08-1.17-.08-.78.03-1.2.08-.82.09-1.2.12c.18-2,.28-4.32.32-6.94.03-2.63.05-5.37.05-8.24Z"/>
          <path class="cls-2" d="M73.79,107.43c0-1.58,0-3.15-.02-4.71-.01-1.56-.03-3.12-.05-4.67.13.02.27.04.4.05.13.01.27.02.4.02s.26,0,.38-.02c.12-.01.25-.03.38-.05.8.87,1.59,1.72,2.37,2.57.78.85,1.58,1.69,2.4,2.54.82.85,1.68,1.72,2.57,2.62.89.9,1.84,1.84,2.84,2.82l3.94,3.87c.31.31.57.56.78.73.21.18.51.41.88.7v-7.41c0-1.42-.04-2.84-.12-4.26s-.17-2.81-.28-4.19c.2.04.41.09.63.13s.49.07.8.07.57-.02.78-.07.42-.09.62-.13c-.07,1-.13,1.93-.18,2.77-.06.85-.09,1.7-.12,2.55-.02.86-.04,1.76-.05,2.7-.01.95-.02,2.03-.02,3.25v1.9c0,.78,0,1.59.02,2.42.01.83.02,1.63.02,2.39v2.47c0,.29,0,.6.02.92.01.32.02.63.02.93v.75c-.11-.02-.22-.04-.33-.05-.11-.01-.22-.02-.33-.02s-.23,0-.35.02-.24.03-.35.05c-.71-.76-1.52-1.61-2.42-2.55-.9-.95-1.84-1.92-2.82-2.92-.98-1-1.98-2.01-3-3.04-1.02-1.02-2.01-2-2.97-2.94-.96-.93-1.85-1.8-2.67-2.59-.82-.79-1.52-1.45-2.1-1.99v3.05c0,.9,0,1.76.02,2.57.01.81.02,1.61.03,2.39.01.78.03,1.61.05,2.5,0,.49,0,.9.02,1.22.01.32.03.66.05,1.02.02.36.05.77.08,1.25.03.48.08,1.1.15,1.85-.18-.02-.41-.06-.7-.12-.29-.06-.56-.08-.8-.08s-.48.02-.7.07c-.22.04-.43.09-.63.13l.27-4.64c.02-.22.04-.53.05-.92.01-.39.02-.8.03-1.23.01-.43.02-.85.02-1.23v-5.49Z"/>
          <path class="cls-2" d="M103.33,107.96h1.59c.63,0,1.3-.01,1.99-.03.69-.02,1.36-.05,2-.08.65-.03,1.19-.07,1.64-.12-.04.18-.08.36-.12.55-.03.19-.05.41-.05.65,0,.49.06.87.17,1.13-.45-.04-.88-.08-1.3-.1s-.85-.04-1.27-.07c-.78-.02-1.55-.04-2.32-.05-.77-.01-1.54-.02-2.32-.02v9.05c.22,0,.63,0,1.22-.02.59-.01,1.27-.03,2.04-.05.77-.02,1.57-.04,2.4-.07.83-.02,1.61-.06,2.32-.1-.11.25-.17.61-.17,1.1s.06.89.17,1.2c-2-.13-4.05-.2-6.14-.2s-4.12.07-6.28.2c.04-.71.08-1.41.1-2.09s.04-1.37.07-2.09c.02-.49.04-1.08.05-1.79.01-.7.02-1.41.03-2.14.01-.72.02-1.41.03-2.07.01-.66.02-1.17.02-1.55,0-.36,0-.98-.02-1.87-.01-.89-.03-1.89-.05-2.99-.02-1.1-.05-2.22-.08-3.35s-.08-2.12-.15-2.97c.4.02.86.04,1.38.07.52.02,1.05.04,1.6.07.55.02,1.09.04,1.63.05.54.01,1.03.02,1.47.02.78,0,1.7-.02,2.75-.07,1.06-.04,2.19-.09,3.39-.13-.04.2-.08.38-.12.53-.03.16-.05.33-.05.53,0,.53.06.95.17,1.23l-3.14-.17c-.31-.02-.58-.04-.82-.05-.23-.01-.51-.02-.82-.02h-3v7.84Z"/>
          <path class="cls-2" d="M115.57,115.94c.38.85.77,1.52,1.17,2.02.4.5.82.88,1.25,1.15.43.27.88.45,1.34.53.46.09.93.13,1.42.13.67,0,1.27-.11,1.8-.32.53-.21.99-.5,1.37-.87.38-.37.67-.81.88-1.32.21-.51.32-1.07.32-1.67,0-.67-.11-1.23-.33-1.69-.22-.46-.48-.83-.78-1.13-.3-.3-.61-.53-.92-.68-.31-.16-.55-.27-.7-.33-.47-.2-1.04-.43-1.72-.7-.68-.27-1.25-.5-1.72-.7-.8-.36-1.47-.73-2.02-1.13-.55-.4-.98-.84-1.3-1.32-.32-.48-.55-1-.68-1.57-.13-.57-.2-1.2-.2-1.89,0-.73.12-1.5.37-2.29.24-.79.66-1.51,1.25-2.15.59-.65,1.39-1.18,2.39-1.6,1-.42,2.26-.63,3.77-.63,1.22,0,2.25.13,3.07.4.82.27,1.65.59,2.47.97-.18.4-.32.73-.42,1-.1.27-.18.51-.25.72-.07.21-.13.43-.18.65-.06.22-.12.49-.18.8h-.47c-.25-.96-.77-1.68-1.57-2.17-.8-.49-1.74-.73-2.8-.73-1.31,0-2.3.36-2.95,1.07-.66.71-.98,1.56-.98,2.54,0,.6.11,1.11.32,1.52.21.41.51.77.9,1.08.39.31.87.59,1.45.83.58.25,1.23.51,1.97.8.65.25,1.2.46,1.65.65.46.19.86.37,1.22.55.36.18.66.36.92.55.26.19.51.42.75.68.36.38.64.77.85,1.18.21.41.37.82.48,1.22.11.4.19.78.23,1.13.04.36.07.65.07.87,0,.85-.16,1.7-.47,2.57-.31.87-.81,1.65-1.49,2.35s-1.55,1.27-2.62,1.72c-1.07.44-2.37.67-3.91.67-.71,0-1.39-.06-2.02-.18-.63-.12-1.21-.27-1.74-.45-.52-.18-1-.36-1.42-.55-.42-.19-.78-.36-1.07-.52.13-.42.24-.78.33-1.08.09-.3.16-.58.2-.85.04-.27.08-.54.12-.82.03-.28.07-.62.12-1.02h.47Z"/>
          <path class="cls-2" d="M133.5,115.94c.38.85.77,1.52,1.17,2.02.4.5.82.88,1.25,1.15.43.27.88.45,1.34.53.46.09.93.13,1.42.13.67,0,1.27-.11,1.8-.32.53-.21.99-.5,1.37-.87.38-.37.67-.81.88-1.32.21-.51.32-1.07.32-1.67,0-.67-.11-1.23-.33-1.69-.22-.46-.48-.83-.78-1.13-.3-.3-.61-.53-.92-.68-.31-.16-.55-.27-.7-.33-.47-.2-1.04-.43-1.72-.7-.68-.27-1.25-.5-1.72-.7-.8-.36-1.47-.73-2.02-1.13-.55-.4-.98-.84-1.3-1.32-.32-.48-.55-1-.68-1.57-.13-.57-.2-1.2-.2-1.89,0-.73.12-1.5.37-2.29.24-.79.66-1.51,1.25-2.15.59-.65,1.39-1.18,2.39-1.6,1-.42,2.26-.63,3.77-.63,1.22,0,2.25.13,3.07.4.82.27,1.65.59,2.47.97-.18.4-.32.73-.42,1-.1.27-.18.51-.25.72-.07.21-.13.43-.18.65-.06.22-.12.49-.18.8h-.47c-.25-.96-.77-1.68-1.57-2.17-.8-.49-1.74-.73-2.8-.73-1.31,0-2.3.36-2.95,1.07-.66.71-.98,1.56-.98,2.54,0,.6.11,1.11.32,1.52.21.41.51.77.9,1.08.39.31.87.59,1.45.83.58.25,1.23.51,1.97.8.65.25,1.2.46,1.65.65.46.19.86.37,1.22.55.36.18.66.36.92.55.26.19.51.42.75.68.36.38.64.77.85,1.18.21.41.37.82.48,1.22.11.4.19.78.23,1.13.04.36.07.65.07.87,0,.85-.16,1.7-.47,2.57-.31.87-.81,1.65-1.49,2.35s-1.55,1.27-2.62,1.72c-1.07.44-2.37.67-3.91.67-.71,0-1.39-.06-2.02-.18-.63-.12-1.21-.27-1.74-.45-.52-.18-1-.36-1.42-.55-.42-.19-.78-.36-1.07-.52.13-.42.24-.78.33-1.08.09-.3.16-.58.2-.85.04-.27.08-.54.12-.82.03-.28.07-.62.12-1.02h.47Z"/>
          <path class="cls-2" d="M160.1,115.94c.38.85.77,1.52,1.17,2.02.4.5.82.88,1.25,1.15.43.27.88.45,1.34.53.46.09.93.13,1.42.13.67,0,1.27-.11,1.8-.32.53-.21.99-.5,1.37-.87.38-.37.67-.81.88-1.32.21-.51.32-1.07.32-1.67,0-.67-.11-1.23-.33-1.69-.22-.46-.48-.83-.78-1.13-.3-.3-.61-.53-.92-.68-.31-.16-.55-.27-.7-.33-.47-.2-1.04-.43-1.72-.7-.68-.27-1.25-.5-1.72-.7-.8-.36-1.47-.73-2.02-1.13-.55-.4-.98-.84-1.3-1.32-.32-.48-.55-1-.68-1.57-.13-.57-.2-1.2-.2-1.89,0-.73.12-1.5.37-2.29.24-.79.66-1.51,1.25-2.15.59-.65,1.39-1.18,2.39-1.6,1-.42,2.26-.63,3.77-.63,1.22,0,2.25.13,3.07.4.82.27,1.65.59,2.47.97-.18.4-.32.73-.42,1-.1.27-.18.51-.25.72-.07.21-.13.43-.18.65-.06.22-.12.49-.18.8h-.47c-.25-.96-.77-1.68-1.57-2.17-.8-.49-1.74-.73-2.8-.73-1.31,0-2.3.36-2.95,1.07-.66.71-.98,1.56-.98,2.54,0,.6.11,1.11.32,1.52.21.41.51.77.9,1.08.39.31.87.59,1.45.83.58.25,1.23.51,1.97.8.65.25,1.2.46,1.65.65.46.19.86.37,1.22.55.36.18.66.36.92.55.26.19.51.42.75.68.36.38.64.77.85,1.18.21.41.37.82.48,1.22.11.4.19.78.23,1.13.04.36.07.65.07.87,0,.85-.16,1.7-.47,2.57-.31.87-.81,1.65-1.49,2.35s-1.55,1.27-2.62,1.72c-1.07.44-2.37.67-3.91.67-.71,0-1.39-.06-2.02-.18-.63-.12-1.21-.27-1.74-.45-.52-.18-1-.36-1.42-.55-.42-.19-.78-.36-1.07-.52.13-.42.24-.78.33-1.08.09-.3.16-.58.2-.85.04-.27.08-.54.12-.82.03-.28.07-.62.12-1.02h.47Z"/>
          <path class="cls-2" d="M196.78,102.72h-.33c-.11-.2-.28-.48-.5-.83-.22-.36-.57-.7-1.03-1.03-.47-.33-1.09-.63-1.87-.88-.78-.26-1.77-.38-2.97-.38-2.8,0-4.93.87-6.38,2.6-1.45,1.74-2.17,4.19-2.17,7.38,0,.29.01.69.03,1.2.02.51.09,1.08.22,1.72s.32,1.3.6,2c.28.7.67,1.39,1.18,2.05.29.4.63.78,1.02,1.13.39.36.83.68,1.32.97.49.29,1.04.52,1.65.68.61.17,1.3.25,2.05.25,1.02,0,1.93-.12,2.72-.35.79-.23,1.49-.53,2.1-.9.61-.37,1.15-.77,1.62-1.22.47-.44.89-.89,1.27-1.34l.37.23-.37,3.3c-2.54,1.4-5.35,2.1-8.44,2.1-1.62,0-3.16-.25-4.61-.75s-2.71-1.23-3.79-2.2c-1.08-.97-1.94-2.17-2.57-3.62-.63-1.45-.95-3.1-.95-4.97,0-1.67.26-3.24.78-4.71.52-1.47,1.32-2.75,2.39-3.84,1.07-1.09,2.42-1.95,4.06-2.59,1.64-.63,3.57-.95,5.79-.95,1.38,0,2.69.13,3.94.38,1.25.26,2.54.68,3.87,1.29l-1,3.27Z"/>
          <path class="cls-2" d="M216.94,109.7c-.91-.04-1.81-.08-2.7-.1-.89-.02-1.79-.03-2.7-.03-.95,0-1.9.01-2.85.03-.94.02-1.89.06-2.84.1v3.34c0,1.07,0,1.99.02,2.75.01.77.03,1.45.07,2.04.03.59.07,1.12.1,1.6.03.48.07.98.12,1.52-.25-.02-.57-.06-.98-.12-.41-.06-.85-.08-1.32-.08-.4,0-.8.02-1.18.07-.39.04-.78.09-1.18.13.13-2.56.22-5.09.25-7.59.03-2.5.05-5.03.05-7.59,0-1.31-.03-2.6-.08-3.87-.06-1.27-.14-2.55-.25-3.84.33.04.75.09,1.25.13s.88.07,1.15.07c.16,0,.34,0,.57-.02.22-.01.44-.03.67-.05s.43-.04.62-.07c.19-.02.34-.04.45-.07-.04.47-.08.93-.12,1.39-.03.46-.07,1.03-.1,1.72-.03.69-.06,1.54-.07,2.55-.01,1.01-.02,2.3-.02,3.86.84.04,1.68.08,2.51.1.83.02,1.67.03,2.51.03,1.02,0,2.03-.01,3.03-.03,1-.02,2.01-.06,3.03-.1v-1.15c0-.54,0-1.12-.02-1.74-.01-.61-.02-1.19-.03-1.74-.01-.54-.02-.92-.02-1.12v-.68c0-.19-.01-.41-.03-.67-.02-.26-.04-.57-.07-.93-.02-.37-.04-.86-.07-1.49.31.04.71.09,1.18.13.47.04.9.07,1.28.07.31,0,.71-.02,1.18-.07s.86-.09,1.17-.13c-.11.87-.19,1.98-.25,3.32-.06,1.35-.1,2.74-.13,4.19-.03,1.45-.06,2.84-.07,4.19-.01,1.35-.02,2.45-.02,3.32,0,1.34.01,2.68.03,4.04.02,1.36.12,2.64.3,3.84-.4-.04-.81-.09-1.23-.13-.41-.04-.82-.07-1.23-.07-.36,0-.74.02-1.14.07-.4.04-.78.09-1.14.13,0-.16.02-.49.05-1s.07-1.08.1-1.7c.03-.62.06-1.23.08-1.82.02-.59.03-1.04.03-1.35l.03-5.37Z"/>
          <path class="cls-2" d="M238.4,97.78c1.56,0,3.08.22,4.56.65,1.48.43,2.8,1.12,3.96,2.05,1.16.93,2.09,2.12,2.79,3.55.7,1.44,1.05,3.15,1.05,5.16,0,1.87-.3,3.55-.9,5.06-.6,1.5-1.45,2.78-2.54,3.84-1.09,1.06-2.4,1.87-3.94,2.45s-3.23.87-5.07.87c-1.74,0-3.36-.25-4.87-.75s-2.83-1.23-3.96-2.2c-1.12-.97-2.01-2.16-2.65-3.59-.65-1.42-.97-3.05-.97-4.87,0-2.11.34-3.94,1.02-5.47.68-1.54,1.59-2.8,2.74-3.81,1.15-1,2.48-1.74,3.99-2.22,1.51-.48,3.12-.72,4.81-.72ZM230.43,109.6c0,1.25.14,2.48.42,3.69.28,1.21.73,2.29,1.37,3.24.63.95,1.45,1.71,2.44,2.3.99.59,2.21.88,3.65.88s2.63-.3,3.62-.9c.99-.6,1.8-1.39,2.44-2.35.63-.97,1.1-2.05,1.39-3.25.29-1.2.43-2.4.43-3.6,0-1.36-.14-2.65-.42-3.87-.28-1.22-.72-2.3-1.34-3.22-.61-.92-1.42-1.66-2.42-2.2-1-.54-2.24-.82-3.7-.82s-2.67.31-3.65.93c-.99.62-1.8,1.42-2.44,2.4-.63.98-1.09,2.07-1.37,3.27-.28,1.2-.42,2.37-.42,3.5Z"/>
          <path class="cls-2" d="M266.84,97.78c1.56,0,3.08.22,4.56.65,1.48.43,2.8,1.12,3.96,2.05,1.16.93,2.09,2.12,2.79,3.55s1.05,3.15,1.05,5.16c0,1.87-.3,3.55-.9,5.06-.6,1.5-1.45,2.78-2.54,3.84-1.09,1.06-2.4,1.87-3.94,2.45s-3.23.87-5.07.87c-1.74,0-3.36-.25-4.87-.75s-2.83-1.23-3.96-2.2c-1.12-.97-2.01-2.16-2.65-3.59-.65-1.42-.97-3.05-.97-4.87,0-2.11.34-3.94,1.02-5.47.68-1.54,1.59-2.8,2.74-3.81,1.15-1,2.48-1.74,3.99-2.22,1.51-.48,3.12-.72,4.81-.72ZM258.86,109.6c0,1.25.14,2.48.42,3.69.28,1.21.73,2.29,1.37,3.24.63.95,1.45,1.71,2.44,2.3.99.59,2.21.88,3.65.88s2.63-.3,3.62-.9c.99-.6,1.8-1.39,2.44-2.35.63-.97,1.1-2.05,1.39-3.25.29-1.2.43-2.4.43-3.6,0-1.36-.14-2.65-.42-3.87-.28-1.22-.72-2.3-1.34-3.22-.61-.92-1.42-1.66-2.42-2.2-1-.54-2.24-.82-3.7-.82s-2.67.31-3.65.93c-.99.62-1.8,1.42-2.44,2.4-.63.98-1.09,2.07-1.37,3.27-.28,1.2-.42,2.37-.42,3.5Z"/>
          <path class="cls-2" d="M284.06,107.16v-.93c0-.27,0-.56-.02-.88-.01-.32-.02-.71-.03-1.17-.01-.46-.03-1.05-.05-1.79,0-.18,0-.47-.02-.88s-.03-.85-.05-1.3c-.02-.46-.04-.89-.05-1.3-.01-.41-.02-.7-.02-.85.42.09.81.15,1.15.17.34.02.73.03,1.15.03s.81-.02,1.17-.05.75-.08,1.17-.15c-.07,1.27-.12,2.49-.15,3.66-.03,1.17-.07,2.34-.1,3.51-.03,1.17-.06,2.35-.07,3.53-.01,1.18-.02,2.42-.02,3.71,0,1.18.01,2.3.03,3.36.02,1.06.04,2.06.07,2.99h1.94c.65,0,1.36-.01,2.15-.04.79-.02,1.57-.06,2.35-.11.78-.05,1.41-.11,1.9-.19-.04.18-.08.35-.12.52-.03.17-.05.44-.05.82,0,.25.01.44.03.58.02.15.07.33.13.55-.42-.02-.91-.04-1.45-.07-.55-.02-1.11-.04-1.69-.07-.58-.02-1.15-.04-1.72-.05-.57-.01-1.07-.02-1.52-.02-1.07,0-2.09.02-3.07.05-.98.03-2.08.08-3.3.15,0-.09,0-.36.02-.8.01-.44.03-.98.05-1.62s.04-1.31.05-2.04.03-1.41.05-2.05c.02-.65.04-1.21.05-1.69.01-.48.02-.78.02-.92v-4.67Z"/>
        </g>
        <path class="cls-3" d="M296.23,135.73H1.54c-.64,0-1.17-.52-1.17-1.17s.52-1.17,1.17-1.17h294.69c.64,0,1.17.52,1.17,1.17s-.52,1.17-1.17,1.17Z"/>
        <g>
          <path class="cls-2" d="M1.61,42.7c0-5.61-.07-10.59-.2-14.95-.14-4.36-.34-8.73-.61-13.13,1.15.14,2.4.25,3.75.35,1.35.1,2.87.15,4.56.15,2.9,0,5.95-.08,9.12-.25,3.17-.17,6.22-.25,9.12-.25s5.81.3,8.31.91c2.5.61,4.66,1.54,6.49,2.79,1.82,1.25,3.23,2.87,4.21,4.86.98,1.99,1.47,4.38,1.47,7.15s-.58,5.15-1.72,7.15c-1.15,1.99-2.55,3.65-4.21,4.97-1.66,1.32-3.45,2.35-5.37,3.09-1.93.74-3.67,1.25-5.22,1.52v.2c1.55.07,3.38.42,5.47,1.06,2.09.64,4.09,1.64,5.98,2.99,1.89,1.35,3.5,3.09,4.81,5.22,1.32,2.13,1.98,4.71,1.98,7.75,0,3.65-.66,6.76-1.98,9.32-1.32,2.57-3.08,4.66-5.27,6.28-2.2,1.62-4.71,2.75-7.55,3.4-2.84.64-5.78.96-8.82.96-2.7,0-5.22-.03-7.55-.1-2.33-.07-4.78-.1-7.35-.1h-5.63c-1.93,0-3.46.07-4.61.2.27-4.19.47-8.46.61-12.82.13-4.36.2-9.34.2-14.95v-13.78ZM32.83,32.26c0-1.62-.19-3.16-.56-4.61-.37-1.45-1-2.7-1.87-3.75-.88-1.05-1.99-1.89-3.34-2.53-1.35-.64-3.04-.96-5.07-.96-1.49,0-2.52.02-3.09.05-.58.03-1.2.12-1.88.25-.14,2.5-.24,5.03-.3,7.6-.07,2.57-.1,4.73-.1,6.49s.02,3.57.05,5.22c.03,1.66.05,3.36.05,5.12h4.56c1.42,0,2.82-.27,4.21-.81,1.38-.54,2.62-1.33,3.7-2.38,1.08-1.05,1.96-2.38,2.63-4,.67-1.62,1.01-3.51,1.01-5.68ZM33.54,65c0-4.73-1.06-8.26-3.19-10.59-2.13-2.33-5.22-3.5-9.27-3.5-.95,0-1.76.02-2.43.05-.68.03-1.32.05-1.93.05,0,1.42-.02,2.89-.05,4.41-.03,1.52-.05,3.33-.05,5.42,0,1.62.02,3.28.05,4.97.03,1.69.05,3.34.05,4.97s.02,3.11.05,4.46c.03,1.35.05,2.47.05,3.34.95.07,1.82.12,2.64.15.81.03,1.79.05,2.94.05,1.49,0,2.9-.3,4.26-.91,1.35-.61,2.53-1.5,3.55-2.69,1.01-1.18,1.82-2.62,2.43-4.31.61-1.69.91-3.65.91-5.88Z"/>
          <path class="cls-2" d="M123.54,84.26c-1.62-.14-3.16-.2-4.61-.2h-8.62c-1.45,0-2.89.07-4.31.2-1.08-3.31-2.2-6.69-3.34-10.14-1.15-3.45-2.37-6.89-3.65-10.34-2.16-.07-4.33-.12-6.49-.15-2.16-.03-4.33-.05-6.49-.05-1.76,0-3.51.02-5.27.05-1.76.03-3.51.09-5.27.15-1.35,3.45-2.6,6.89-3.75,10.34-1.15,3.45-2.2,6.83-3.14,10.14-.81-.14-1.61-.2-2.38-.2h-4.81c-.81,0-1.69.07-2.64.2.81-1.76,1.89-4.19,3.24-7.3,1.35-3.11,2.84-6.62,4.46-10.54,1.62-3.92,3.36-8.12,5.22-12.62,1.86-4.49,3.72-9.04,5.57-13.63,1.86-4.59,3.68-9.12,5.47-13.58,1.79-4.46,3.43-8.62,4.92-12.47.67.14,1.32.25,1.93.35s1.25.15,1.93.15,1.32-.05,1.93-.15,1.25-.22,1.93-.35c2.16,5.74,4.48,11.89,6.94,18.45,2.47,6.55,4.95,12.99,7.45,19.31,2.5,6.32,4.93,12.32,7.3,17.99,2.36,5.68,4.53,10.47,6.49,14.39ZM87.66,33.68c-1.76,4.05-3.41,8.06-4.97,12.01-1.56,3.95-3.08,7.99-4.56,12.11h18.55c-1.49-4.12-2.96-8.16-4.41-12.11-1.45-3.95-2.99-7.96-4.61-12.01Z"/>
          <path class="cls-2" d="M160.97,38.39c1.35-2.47,2.67-5.05,3.95-7.75,1.28-2.7,2.53-5.42,3.75-8.16,1.22-2.74,2.4-5.35,3.55-7.86.74.14,1.5.25,2.28.35.78.1,1.57.15,2.38.15s1.6-.05,2.38-.15c.78-.1,1.6-.22,2.48-.35-1.15,1.89-2.58,4.38-4.31,7.45-1.72,3.08-3.57,6.4-5.52,9.98-1.96,3.58-3.94,7.25-5.93,11-1.99,3.75-3.8,7.21-5.42,10.39,0,1.62-.03,3.26-.1,4.92-.07,1.66-.1,3.33-.1,5.02,0,3.45.05,6.86.15,10.24.1,3.38.39,6.93.86,10.64-1.42-.14-2.86-.2-4.31-.2h-8.62c-1.45,0-2.89.07-4.31.2.13-3.11.37-6.28.71-9.53.34-3.24.51-6.49.51-9.73,0-1.55-.02-3.12-.05-4.71-.03-1.59-.09-3.16-.15-4.71-1.69-3.38-3.63-7.15-5.83-11.3-2.2-4.16-4.33-8.19-6.39-12.11-2.06-3.92-3.95-7.47-5.68-10.64-1.72-3.18-2.99-5.47-3.8-6.89,1.55.14,3.07.25,4.56.35,1.49.1,3.01.15,4.56.15s3.06-.05,4.51-.15c1.45-.1,2.96-.22,4.51-.35,1.15,2.5,2.45,5.27,3.9,8.31,1.45,3.04,2.89,6.02,4.31,8.92,1.42,2.91,2.74,5.54,3.95,7.91,1.22,2.37,2.19,4.12,2.94,5.27h.2c1.35-1.96,2.7-4.17,4.05-6.64Z"/>
          <path class="cls-2" d="M198.14,27.75c-.14-4.36-.34-8.73-.61-13.13,3.04.07,6.05.17,9.02.3,2.97.14,5.98.2,9.02.2,5,0,9.44-.05,13.33-.15,3.88-.1,6.5-.22,7.86-.35-.27,1.08-.41,2.5-.41,4.26,0,1.08.03,1.93.1,2.53.07.61.17,1.28.3,2.03-1.96-.13-4.1-.27-6.44-.41-2.33-.13-4.6-.27-6.79-.41-2.2-.13-4.17-.24-5.93-.3-1.76-.07-3.01-.1-3.75-.1-.27,3.72-.42,7.4-.46,11.05-.03,3.65-.05,7.33-.05,11.05,4.39-.07,8.36-.17,11.91-.3,3.55-.13,7.25-.3,11.1-.51-.2,1.15-.34,2.03-.41,2.63-.07.61-.1,1.25-.1,1.93,0,.54.05,1.1.15,1.67.1.58.22,1.4.35,2.48-7.7-.61-15.37-.91-23.01-.91,0,2.16-.02,4.33-.05,6.49-.03,2.16-.05,4.33-.05,6.49,0,4.39.1,8.62.3,12.67,3.85,0,7.7-.1,11.56-.3,3.85-.2,7.74-.54,11.66-1.01-.14.74-.24,1.42-.3,2.03-.07.61-.1,1.45-.1,2.53s.03,1.93.1,2.53c.07.61.17,1.11.3,1.52-1.82-.07-4.07-.12-6.74-.15-2.67-.03-6.33-.05-11-.05h-16.07c-1.52,0-2.67.02-3.45.05-.78.03-1.44.08-1.98.15.27-4.19.47-8.46.61-12.82.13-4.36.2-9.34.2-14.95v-13.78c0-5.61-.07-10.59-.2-14.95Z"/>
          <path class="cls-2" d="M276.49,19.59c-3.11,0-5.64.91-7.6,2.74-1.96,1.82-2.94,3.95-2.94,6.39s.76,4.55,2.28,6.13c1.52,1.59,3.43,3.02,5.73,4.31,2.3,1.28,4.76,2.52,7.4,3.7,2.63,1.18,5.1,2.64,7.4,4.36,2.3,1.72,4.21,3.82,5.73,6.28,1.52,2.47,2.28,5.63,2.28,9.48,0,3.38-.64,6.47-1.93,9.27-1.28,2.81-3.11,5.2-5.47,7.2-2.37,1.99-5.19,3.51-8.46,4.56-3.28,1.05-6.94,1.57-11,1.57-3.65,0-6.91-.39-9.78-1.17-2.87-.78-5.05-1.74-6.54-2.89.67-2.36,1.25-4.53,1.72-6.49.47-1.96.88-4.09,1.22-6.39h1.93c.27,1.49.78,2.89,1.52,4.21.74,1.32,1.69,2.48,2.84,3.5,1.15,1.01,2.53,1.81,4.16,2.38,1.62.57,3.45.86,5.47.86,4.05,0,7.04-1.01,8.97-3.04,1.93-2.03,2.89-4.46,2.89-7.3,0-2.57-.74-4.66-2.23-6.28-1.49-1.62-3.34-3.06-5.57-4.31-2.23-1.25-4.66-2.47-7.3-3.65-2.64-1.18-5.07-2.62-7.3-4.31-2.23-1.69-4.09-3.77-5.57-6.23-1.49-2.47-2.23-5.62-2.23-9.48,0-3.51.62-6.62,1.88-9.32,1.25-2.7,2.92-4.97,5.02-6.79,2.09-1.82,4.51-3.21,7.25-4.16,2.74-.95,5.63-1.42,8.67-1.42,3.65,0,6.84.44,9.58,1.32,2.74.88,5.08,2.1,7.04,3.65-.61,1.56-1.13,3.06-1.57,4.51-.44,1.45-1,3.29-1.67,5.52h-1.52c-2.16-5.81-6.25-8.72-12.26-8.72Z"/>
        </g>
        <g>
          <path class="cls-1" d="M15.29,186.53c-.02-1.29-.06-2.17-.13-2.66.18.03.36.06.53.09.17.03.33.04.5.04.21,0,.47-.04.75-.13-.05.59-.1,1.28-.15,2.09-.05.81-.09,1.68-.13,2.61-.04.93-.07,1.88-.1,2.86-.03.98-.06,1.92-.08,2.84-.02,1.12-.19,2.12-.51,3.01-.32.89-.79,1.64-1.39,2.25-.6.62-1.34,1.09-2.22,1.4-.88.31-1.88.48-3.02.48-2.51,0-4.33-.57-5.46-1.7-1.14-1.14-1.7-2.93-1.7-5.39,0-.78.02-1.48.06-2.09.04-.61.06-1.23.06-1.87,0-1.4-.01-2.65-.05-3.73-.03-1.09-.06-2-.1-2.76.2.03.42.06.65.09.23.03.45.04.65.04.18,0,.36-.01.54-.04.17-.02.35-.05.54-.09-.03.37-.07.85-.1,1.44-.03.59-.07,1.26-.1,2.02-.03.75-.06,1.56-.08,2.43-.02.87-.02,1.77-.02,2.7,0,.57,0,1.16.02,1.77.01.61.08,1.2.18,1.78.1.58.26,1.13.49,1.65.23.53.55.99.96,1.38.42.39.94.7,1.58.93.64.23,1.42.34,2.36.34s1.69-.13,2.32-.4c.63-.26,1.14-.62,1.54-1.05.4-.43.71-.94.94-1.5.23-.57.39-1.16.49-1.78.1-.62.16-1.24.18-1.85.02-.62.03-1.19.03-1.7,0-2.37-.01-4.2-.03-5.49"/>
          <path class="cls-1" d="M29.72,194.58c-2.17-2.33-4.34-4.65-6.51-6.95-.02.47-.03,1.09-.05,1.88-.02.78-.03,1.85-.03,3.21,0,.35,0,.79.01,1.3,0,.52.02,1.06.03,1.63,0,.57.02,1.14.04,1.73.02.58.03,1.12.05,1.63.02.5.03.94.05,1.31.02.38.03.63.05.76-.27-.03-.56-.05-.88-.05s-.64.02-.93.05c.03-.17.07-.48.11-.93.04-.45.08-.99.12-1.62.03-.63.07-1.31.11-2.04.04-.73.08-1.47.1-2.2.03-.73.05-1.45.06-2.15.02-.7.03-1.33.03-1.88,0-1.6,0-2.98-.01-4.13,0-1.15-.03-2.01-.07-2.58h.4c1.02,1.1,2.11,2.28,3.27,3.54,1.16,1.26,2.31,2.51,3.46,3.73,1.14,1.23,2.23,2.39,3.26,3.48,1.03,1.09,1.92,2.03,2.69,2.79v-3.41c0-1.75-.01-3.46-.03-5.12-.03-1.66-.08-3.22-.17-4.69.33.08.62.12.85.12.2,0,.47-.04.8-.12-.03.36-.07.92-.12,1.65-.04.74-.08,1.52-.12,2.36-.04.83-.08,1.65-.11,2.45-.03.8-.05,1.44-.05,1.93v1.5c0,.57,0,1.16.02,1.78,0,.62.01,1.24.02,1.87,0,.63.02,1.21.03,1.75,0,.55.01,1.01.01,1.42v.83h-.35c-1.92-2.22-3.97-4.5-6.14-6.83"/>
          <path class="cls-1" d="M41.18,187.12c-.04-1.06-.09-2.14-.14-3.24.22.03.43.06.63.09.2.02.4.04.6.04s.4-.02.6-.04c.2-.03.41-.05.63-.09-.05,1.1-.1,2.18-.13,3.24-.04,1.06-.07,2.14-.07,3.24v4.31c0,1.1.02,2.19.07,3.26.04,1.07.08,2.12.13,3.16-.38-.03-.79-.05-1.23-.05s-.84.02-1.23.05c.05-1.03.1-2.08.14-3.16.04-1.07.06-2.15.06-3.26v-4.31c0-1.1-.02-2.18-.06-3.24"/>
          <path class="cls-1" d="M51.76,197.52c-.55-1.39-1.14-2.85-1.77-4.38-.63-1.54-1.27-3.11-1.93-4.71-.66-1.6-1.29-3.12-1.89-4.56.23.03.46.06.68.09.22.02.43.04.63.04s.41-.02.63-.04c.22-.03.45-.05.68-.09.36,1.1.77,2.26,1.21,3.47.44,1.21.91,2.44,1.4,3.69.5,1.25,1,2.52,1.52,3.81.52,1.29,1.04,2.56,1.58,3.83.3-.68.63-1.45.98-2.29.35-.84.7-1.72,1.06-2.63.36-.91.71-1.83,1.06-2.78.35-.94.69-1.85,1.01-2.72.33-.87.63-1.68.89-2.43.27-.75.49-1.4.68-1.95.37.08.68.13.93.13s.56-.04.92-.13c-1.3,2.91-2.55,5.79-3.76,8.64-1.2,2.86-2.35,5.71-3.46,8.57-.27-.03-.54-.05-.83-.05-.33,0-.61.02-.83.05-.38-.99-.85-2.17-1.4-3.56"/>
          <path class="cls-1" d="M64.85,187.08c-.04-1.07-.09-2.14-.14-3.21.75.03,1.5.06,2.24.09.74.02,1.49.03,2.24.03s1.49-.01,2.23-.03c.73-.03,1.48-.05,2.23-.09-.05.25-.07.5-.07.75s.02.5.07.75c-.53-.03-1.02-.06-1.46-.1-.45-.03-.91-.06-1.41-.1-.49-.03-1.03-.06-1.62-.09-.58-.02-1.29-.04-2.1-.04-.02.54-.04,1.04-.06,1.53-.02.49-.04,1.04-.04,1.65,0,.65,0,1.29.01,1.9,0,.62.01,1.09.01,1.4.73,0,1.39,0,1.98-.02.58-.02,1.12-.04,1.6-.06.48-.03.93-.05,1.34-.08.41-.03.8-.05,1.16-.09-.05.25-.07.51-.07.78s.02.5.07.75c-.43-.05-.94-.09-1.51-.13-.58-.03-1.16-.05-1.73-.06-.58,0-1.12-.02-1.63-.02-.51-.01-.91-.02-1.21-.02,0,.15,0,.31-.01.49-.01.17-.01.4-.01.66v2.48c0,.95,0,1.74.01,2.36,0,.62.02,1.09.04,1.4h1.75c.63,0,1.26-.01,1.87-.04.61-.02,1.19-.06,1.73-.1.55-.04,1.02-.1,1.42-.19-.03.12-.05.25-.06.39-.01.14-.02.27-.02.39,0,.26.03.48.08.65-.75-.03-1.5-.05-2.24-.05h-4.54c-.75,0-1.51.02-2.28.05.05-1.07.1-2.13.14-3.19.04-1.06.06-2.14.06-3.24v-4.31c0-1.1-.02-2.19-.06-3.26"/>
          <path class="cls-1" d="M77.37,187.12c-.04-1.06-.09-2.14-.14-3.24.48.03.96.06,1.43.09.47.02.94.04,1.43.04s.96-.02,1.43-.07c.47-.04.94-.06,1.43-.06.7,0,1.37.07,2,.2.63.13,1.19.36,1.67.66.48.31.85.71,1.12,1.22.28.5.41,1.12.41,1.88,0,.8-.18,1.49-.54,2.07-.36.58-.79,1.05-1.31,1.43-.52.38-1.08.67-1.67.87-.59.21-1.13.35-1.62.41.2.25.48.6.83,1.05.35.45.74.95,1.17,1.49.43.55.89,1.11,1.36,1.7.46.59.92,1.16,1.35,1.7.43.54.84,1.04,1.23,1.49.38.45.69.79.93,1.02-.25-.03-.5-.05-.75-.05h-1.48c-.25,0-.49.02-.73.05-.25-.35-.63-.88-1.14-1.58-.51-.7-1.07-1.45-1.69-2.25s-1.25-1.6-1.89-2.39c-.64-.79-1.23-1.47-1.77-2.02h-.95v1.83c0,1.1.02,2.19.06,3.26.04,1.07.09,2.12.13,3.16-.38-.03-.79-.05-1.22-.05s-.84.02-1.23.05c.05-1.03.1-2.08.14-3.16.04-1.07.06-2.15.06-3.26v-4.31c0-1.1-.02-2.18-.06-3.24M80.25,191.89c.28.02.58.03.91.03.52,0,1.06-.06,1.62-.18.56-.12,1.07-.32,1.54-.61.46-.29.85-.68,1.16-1.18.31-.49.46-1.11.46-1.87,0-.65-.12-1.19-.36-1.62-.24-.43-.56-.76-.94-1.01-.38-.25-.8-.42-1.25-.51-.45-.09-.89-.14-1.33-.14-.58,0-1.07.02-1.45.04-.38.03-.71.05-.98.09-.03.92-.07,1.83-.1,2.73-.03.9-.05,1.8-.05,2.71v1.43c.23.05.49.08.76.1"/>
          <path class="cls-1" d="M92.72,198.74c.23.31.5.59.83.84.33.25.71.45,1.14.61.43.16.92.24,1.45.24s1.04-.1,1.49-.29c.44-.19.82-.45,1.12-.78.31-.33.55-.71.71-1.15.17-.44.25-.91.25-1.42,0-.77-.2-1.37-.59-1.83-.39-.45-.88-.83-1.46-1.13-.59-.3-1.22-.58-1.89-.83-.68-.25-1.3-.56-1.89-.94-.58-.37-1.07-.85-1.46-1.44-.4-.58-.59-1.37-.59-2.35,0-.7.13-1.34.38-1.92.25-.58.61-1.08,1.09-1.49.48-.42,1.05-.74,1.72-.98s1.42-.35,2.25-.35,1.49.1,2.08.29c.58.19,1.13.49,1.63.89-.15.28-.28.59-.38.9-.1.32-.2.72-.3,1.2h-.3c-.08-.23-.2-.49-.34-.76-.14-.28-.33-.53-.58-.76-.24-.23-.53-.43-.86-.59-.33-.16-.73-.24-1.2-.24s-.9.08-1.29.23c-.39.15-.74.36-1.03.64-.29.28-.51.61-.68.99-.16.38-.24.8-.24,1.25,0,.79.2,1.4.59,1.85.39.45.88.83,1.46,1.14.58.31,1.22.58,1.89.83.68.24,1.31.54,1.89.89.59.35,1.07.8,1.47,1.35.39.55.59,1.29.59,2.2,0,.77-.13,1.5-.41,2.18-.28.68-.68,1.28-1.2,1.79-.53.51-1.17.9-1.93,1.18-.76.28-1.62.41-2.59.41-1.04,0-1.87-.14-2.52-.41-.64-.28-1.18-.59-1.62-.94.15-.38.26-.73.31-1.04.06-.31.11-.71.16-1.19h.3c.13.3.31.61.54.91"/>
          <path class="cls-1" d="M105.19,187.12c-.04-1.06-.09-2.14-.14-3.24.22.03.43.06.63.09.2.02.4.04.6.04s.4-.02.6-.04c.2-.03.41-.05.63-.09-.05,1.1-.1,2.18-.13,3.24-.04,1.06-.06,2.14-.06,3.24v4.31c0,1.1.02,2.19.06,3.26.04,1.07.08,2.12.13,3.16-.38-.03-.79-.05-1.22-.05s-.84.02-1.23.05c.05-1.03.1-2.08.14-3.16.04-1.07.06-2.15.06-3.26v-4.31c0-1.1-.02-2.18-.06-3.24"/>
          <path class="cls-1" d="M115.62,185.18c-.43,0-.89,0-1.37.01-.48.01-.95.03-1.43.05-.47.03-.93.05-1.37.09-.45.03-.84.08-1.19.13.08-.3.12-.57.12-.8,0-.18-.04-.44-.12-.78,1.1.03,2.18.06,3.23.09,1.05.02,2.13.03,3.23.03s2.18-.01,3.23-.03c1.05-.03,2.13-.05,3.23-.09-.08.33-.12.6-.12.8,0,.21.04.47.12.78-.35-.05-.74-.09-1.19-.13-.45-.03-.9-.06-1.38-.09-.48-.02-.95-.04-1.43-.05-.48,0-.93-.01-1.37-.01-.05,1.72-.07,3.45-.07,5.19v4.31c0,1.1.02,2.19.06,3.26.04,1.07.09,2.12.14,3.16-.38-.03-.79-.05-1.23-.05s-.84.01-1.23.05c.05-1.03.1-2.09.14-3.16.04-1.07.07-2.15.07-3.26v-4.31c0-1.74-.03-3.47-.08-5.19"/>
          <path class="cls-1" d="M129.59,192.8c-.33-.54-.68-1.14-1.08-1.8-.39-.66-.8-1.35-1.24-2.08-.43-.73-.84-1.42-1.24-2.08-.39-.66-.74-1.25-1.06-1.78-.31-.53-.56-.92-.73-1.19.23.03.46.06.69.09.23.02.46.04.69.04s.46-.02.69-.04c.23-.03.46-.05.69-.09.75,1.45,1.51,2.88,2.29,4.28.78,1.4,1.6,2.86,2.46,4.38.38-.6.79-1.26,1.2-1.98.41-.72.83-1.45,1.25-2.2.42-.75.82-1.5,1.2-2.26.38-.76.74-1.5,1.08-2.22.41.08.74.13.97.13s.56-.04.98-.13c-.8,1.22-1.52,2.32-2.15,3.31-.63.99-1.19,1.88-1.68,2.68-.48.8-.91,1.52-1.28,2.17-.36.64-.68,1.22-.95,1.74,0,.62,0,1.28.01,1.98,0,.7.02,1.39.04,2.07.01.68.03,1.3.06,1.88.02.58.05,1.04.09,1.39-.38-.03-.79-.05-1.23-.05s-.84.02-1.23.05c.1-.87.16-1.92.18-3.16.02-1.24.03-2.53.03-3.88-.17-.28-.41-.7-.74-1.24"/>
          <path class="cls-1" d="M147.7,188.72c.46-1.11,1.1-2.05,1.93-2.82.83-.77,1.82-1.35,2.97-1.75,1.15-.4,2.41-.6,3.78-.6s2.65.2,3.81.6c1.15.4,2.14.99,2.97,1.75.83.77,1.47,1.71,1.93,2.82.46,1.11.69,2.38.69,3.8s-.23,2.68-.69,3.79c-.46,1.11-1.1,2.05-1.93,2.82-.83.77-1.82,1.34-2.97,1.72-1.16.38-2.42.56-3.81.56s-2.63-.19-3.78-.56c-1.15-.38-2.14-.95-2.97-1.72-.83-.77-1.47-1.71-1.93-2.82-.46-1.11-.69-2.38-.69-3.79s.23-2.69.69-3.8M162.78,188.92c-.35-1.01-.84-1.84-1.47-2.5-.63-.66-1.36-1.15-2.2-1.47-.84-.31-1.76-.48-2.74-.48s-1.87.16-2.72.48c-.84.32-1.58.81-2.2,1.47-.63.66-1.12,1.49-1.47,2.5s-.53,2.21-.53,3.6.18,2.58.53,3.59.84,1.85,1.47,2.5c.63.66,1.36,1.15,2.2,1.47.84.32,1.75.48,2.72.48s1.9-.16,2.74-.48c.84-.32,1.58-.81,2.2-1.47.63-.66,1.12-1.49,1.47-2.5.35-1.01.53-2.21.53-3.59s-.18-2.59-.53-3.6"/>
          <path class="cls-1" d="M169.21,187.12c-.04-1.06-.09-2.14-.14-3.24.75.03,1.5.06,2.24.09.74.02,1.49.04,2.24.04s1.51-.02,2.28-.04c.77-.03,1.6-.05,2.5-.09-.05.25-.07.5-.07.75s.02.5.07.75c-.45-.05-.99-.09-1.63-.13-.63-.04-1.28-.08-1.94-.1-.66-.03-1.29-.05-1.9-.07-.61-.02-1.12-.02-1.52-.02-.02.58-.03,1.14-.04,1.68,0,.53-.01,1.07-.01,1.6,0,.59,0,1.13.01,1.62,0,.5.01,1.01.01,1.54,1.1,0,2.19-.02,3.27-.05,1.08-.03,2.14-.1,3.19-.2-.07.25-.1.5-.1.75s.03.5.1.75c-.42-.05-.89-.09-1.42-.12-.53-.02-1.07-.05-1.64-.06-.57-.02-1.14-.02-1.73-.02h-1.68v2.13c0,1.1.02,2.19.06,3.26.04,1.07.09,2.12.14,3.16-.38-.03-.79-.05-1.23-.05s-.84.02-1.23.05c.05-1.03.1-2.08.14-3.16.04-1.07.06-2.15.06-3.26v-4.31c0-1.1-.02-2.18-.06-3.24"/>
          <path class="cls-1" d="M188.69,187.12c-.04-1.06-.09-2.14-.14-3.24.22.03.43.06.63.09.2.02.4.04.6.04s.4-.02.6-.04c.2-.03.41-.05.63-.09-.05,1.1-.1,2.18-.14,3.24-.04,1.06-.07,2.14-.07,3.24,0,2.1.01,3.93.03,5.47.01,1.54.03,2.92.05,4.14,1.19,0,2.32-.01,3.4-.03,1.09-.03,2.25-.12,3.51-.29-.08.3-.13.55-.13.75,0,.18.04.41.13.68-.77-.03-1.54-.05-2.3-.05h-4.62c-.74,0-1.52.02-2.32.05.05-1.03.1-2.08.14-3.16.04-1.07.06-2.15.06-3.26v-4.31c0-1.1-.02-2.18-.06-3.24"/>
          <path class="cls-1" d="M200.57,188.72c.46-1.11,1.1-2.05,1.93-2.82.83-.77,1.82-1.35,2.97-1.75,1.15-.4,2.41-.6,3.78-.6s2.65.2,3.8.6c1.16.4,2.14.99,2.97,1.75.83.77,1.47,1.71,1.93,2.82.46,1.11.69,2.38.69,3.8s-.23,2.68-.69,3.79c-.46,1.11-1.1,2.05-1.93,2.82-.83.77-1.82,1.34-2.97,1.72-1.15.38-2.42.56-3.8.56s-2.63-.19-3.78-.56c-1.15-.38-2.14-.95-2.97-1.72-.83-.77-1.47-1.71-1.93-2.82-.46-1.11-.69-2.38-.69-3.79s.23-2.69.69-3.8M215.65,188.92c-.35-1.01-.84-1.84-1.47-2.5-.63-.66-1.36-1.15-2.2-1.47-.84-.31-1.76-.48-2.74-.48s-1.88.16-2.72.48c-.84.32-1.58.81-2.2,1.47-.63.66-1.12,1.49-1.47,2.5s-.53,2.21-.53,3.6.18,2.58.53,3.59.84,1.85,1.47,2.5c.63.66,1.36,1.15,2.2,1.47.84.32,1.75.48,2.72.48s1.9-.16,2.74-.48c.84-.32,1.58-.81,2.2-1.47.63-.66,1.12-1.49,1.47-2.5s.53-2.21.53-3.59-.18-2.59-.53-3.6"/>
          <path class="cls-1" d="M230.11,194.58c-2.17-2.33-4.34-4.65-6.51-6.95-.02.47-.03,1.09-.05,1.88-.02.78-.03,1.85-.03,3.21,0,.35,0,.79.01,1.3,0,.52.02,1.06.03,1.63,0,.57.02,1.14.04,1.73.02.58.03,1.12.05,1.63.02.5.03.94.05,1.31.02.38.03.63.05.76-.27-.03-.56-.05-.88-.05s-.64.02-.93.05c.03-.17.07-.48.11-.93.04-.45.08-.99.12-1.62.03-.63.07-1.31.11-2.04.04-.73.08-1.47.1-2.2.03-.73.05-1.45.06-2.15.02-.7.03-1.33.03-1.88,0-1.6,0-2.98-.01-4.13-.01-1.15-.03-2.01-.07-2.58h.4c1.02,1.1,2.11,2.28,3.27,3.54,1.16,1.26,2.32,2.51,3.46,3.73,1.14,1.23,2.23,2.39,3.26,3.48,1.03,1.09,1.92,2.03,2.69,2.79v-3.41c0-1.75-.01-3.46-.03-5.12-.03-1.66-.08-3.22-.17-4.69.33.08.62.12.85.12.2,0,.47-.04.8-.12-.03.36-.07.92-.12,1.65-.04.74-.08,1.52-.12,2.36-.04.83-.08,1.65-.11,2.45-.03.8-.05,1.44-.05,1.93v1.5c0,.57,0,1.16.02,1.78,0,.62.01,1.24.02,1.87,0,.63.02,1.21.03,1.75,0,.55.01,1.01.01,1.42v.83h-.35c-1.92-2.22-3.97-4.5-6.13-6.83"/>
          <path class="cls-1" d="M241.56,187.12c-.04-1.06-.09-2.14-.14-3.24.63.03,1.27.06,1.89.09.63.02,1.26.04,1.89.04s1.27-.02,1.89-.07c.63-.04,1.26-.06,1.89-.06,1.47,0,2.73.19,3.77.58,1.04.38,1.9.93,2.57,1.64.67.71,1.16,1.57,1.47,2.6.31,1.03.46,2.18.46,3.47,0,1.67-.29,3.07-.86,4.22-.58,1.14-1.31,2.07-2.2,2.77-.89.7-1.88,1.2-2.96,1.49-1.08.29-2.11.44-3.09.44-.57,0-1.13,0-1.68-.02-.55-.02-1.11-.03-1.68-.03h-1.68c-.55,0-1.11.02-1.68.05.05-1.03.1-2.08.14-3.16.04-1.07.06-2.15.06-3.26v-4.31c0-1.1-.02-2.18-.06-3.24M243.83,199.98c.35.08.83.15,1.42.19.6.04,1.22.07,1.85.07.92,0,1.84-.11,2.76-.33.92-.22,1.74-.63,2.47-1.23.73-.6,1.32-1.42,1.78-2.47.46-1.04.69-2.39.69-4.04,0-1.45-.18-2.65-.54-3.58-.36-.94-.85-1.67-1.48-2.22-.63-.54-1.37-.92-2.24-1.13-.87-.21-1.82-.31-2.86-.31-.75,0-1.45.03-2.1.08-.65.05-1.24.11-1.75.17-.05.8-.09,1.64-.12,2.52-.02.88-.04,1.77-.04,2.67v4.31c0,1.8.05,3.57.15,5.31"/>
          <path class="cls-1" d="M260.4,188.72c.46-1.11,1.1-2.05,1.93-2.82.83-.77,1.82-1.35,2.97-1.75,1.15-.4,2.41-.6,3.78-.6s2.65.2,3.8.6c1.15.4,2.14.99,2.97,1.75.83.77,1.47,1.71,1.93,2.82.46,1.11.69,2.38.69,3.8s-.23,2.68-.69,3.79c-.46,1.11-1.1,2.05-1.93,2.82-.83.77-1.82,1.34-2.97,1.72-1.15.38-2.42.56-3.8.56s-2.63-.19-3.78-.56c-1.15-.38-2.14-.95-2.97-1.72-.83-.77-1.47-1.71-1.93-2.82-.46-1.11-.69-2.38-.69-3.79s.23-2.69.69-3.8M275.49,188.92c-.35-1.01-.84-1.84-1.47-2.5-.63-.66-1.36-1.15-2.2-1.47-.84-.31-1.76-.48-2.74-.48s-1.88.16-2.72.48c-.84.32-1.58.81-2.2,1.47-.63.66-1.12,1.49-1.47,2.5-.35,1.01-.53,2.21-.53,3.6s.18,2.58.53,3.59c.35,1.01.84,1.85,1.47,2.5.63.66,1.36,1.15,2.2,1.47.84.32,1.75.48,2.72.48s1.9-.16,2.74-.48c.84-.32,1.58-.81,2.2-1.47.63-.66,1.12-1.49,1.47-2.5s.53-2.21.53-3.59-.18-2.59-.53-3.6"/>
          <path class="cls-1" d="M289.94,194.58c-2.17-2.33-4.34-4.65-6.51-6.95-.02.47-.03,1.09-.05,1.88-.02.78-.03,1.85-.03,3.21,0,.35,0,.79.01,1.3,0,.52.02,1.06.03,1.63,0,.57.02,1.14.04,1.73.02.58.03,1.12.05,1.63.02.5.03.94.05,1.31.02.38.03.63.05.76-.27-.03-.56-.05-.88-.05s-.64.02-.92.05c.03-.17.07-.48.11-.93.04-.45.08-.99.12-1.62.03-.63.07-1.31.11-2.04.04-.73.08-1.47.1-2.2.03-.73.05-1.45.06-2.15.02-.7.03-1.33.03-1.88,0-1.6,0-2.98-.01-4.13-.01-1.15-.03-2.01-.06-2.58h.4c1.02,1.1,2.11,2.28,3.27,3.54,1.16,1.26,2.32,2.51,3.46,3.73,1.14,1.23,2.23,2.39,3.26,3.48,1.03,1.09,1.92,2.03,2.69,2.79v-3.41c0-1.75-.01-3.46-.03-5.12-.03-1.66-.08-3.22-.17-4.69.33.08.62.12.85.12.2,0,.47-.04.8-.12-.03.36-.07.92-.12,1.65-.04.74-.08,1.52-.12,2.36-.04.83-.08,1.65-.12,2.45-.03.8-.05,1.44-.05,1.93v1.5c0,.57,0,1.16.02,1.78,0,.62.02,1.24.02,1.87,0,.63.02,1.21.02,1.75.01.55.02,1.01.02,1.42v.83h-.35c-1.92-2.22-3.97-4.5-6.13-6.83"/>
        </g>
      </g>
    </g>
  </g>
</svg>